<?xml version="1.0" encoding="UTF-8" standalone="no"?>
<svg
   xmlns:dc="http://purl.org/dc/elements/1.1/"
   xmlns:cc="http://creativecommons.org/ns#"
   xmlns:rdf="http://www.w3.org/1999/02/22-rdf-syntax-ns#"
   xmlns:svg="http://www.w3.org/2000/svg"
   xmlns="http://www.w3.org/2000/svg"
   xmlns:sodipodi="http://sodipodi.sourceforge.net/DTD/sodipodi-0.dtd"
   xmlns:inkscape="http://www.inkscape.org/namespaces/inkscape"
   width="428.56992mm"
   height="237.88391mm"
   viewBox="0 0 428.56991 237.8839"
   version="1.1"
   id="svg5737"
   inkscape:version="1.0.1 (3bc2e813f5, 2020-09-07)"
   sodipodi:docname="2.svg">
  <defs
     id="defs5731" />
  <sodipodi:namedview
     id="base"
     pagecolor="#ffffff"
     bordercolor="#666666"
     borderopacity="1.0"
     inkscape:pageopacity="0.0"
     inkscape:pageshadow="2"
     inkscape:zoom="0.35"
     inkscape:cx="690.30854"
     inkscape:cy="-120.83538"
     inkscape:document-units="mm"
     inkscape:current-layer="layer1"
     inkscape:document-rotation="0"
     showgrid="false"
     inkscape:window-width="1267"
     inkscape:window-height="730"
     inkscape:window-x="83"
     inkscape:window-y="0"
     inkscape:window-maximized="0" />
  <metadata
     id="metadata5734">
    <rdf:RDF>
      <cc:Work
         rdf:about="">
        <dc:format>image/svg+xml</dc:format>
        <dc:type
           rdf:resource="http://purl.org/dc/dcmitype/StillImage" />
        <dc:title></dc:title>
      </cc:Work>
    </rdf:RDF>
  </metadata>
  <g
     inkscape:label="Layer 1"
     inkscape:groupmode="layer"
     id="layer1"
     transform="translate(70.007233,-258.7435)">
    <g
       id="g5671"
       transform="translate(-526.33191,439.09719)">
      <g
         id="g5603"
         style="stroke:#999999;stroke-linecap:butt;stroke-opacity:1"
         transform="matrix(0.17319755,0,0,0.17915969,938.34692,771.81708)">
        <path
           style="fill:#d38d5f;stroke:#999999;stroke-width:0.144201px;stroke-linecap:butt;stroke-linejoin:miter;stroke-opacity:1"
           d="m -498.74999,-4545.1125 c -7.5767,-10.477 -5.2149,-16.1102 -7.6475,-24.2169 2.6496,8.4029 0.3802,15.5791 10.1967,25.4915 z"
           id="path5593"
           sodipodi:nodetypes="cccc" />
        <path
           style="fill:#d38d5f;stroke:#999999;stroke-width:0.144201px;stroke-linecap:butt;stroke-linejoin:miter;stroke-opacity:1"
           d="m -517.86869,-4574.1091 c 0.1746,4.1045 -4.6612,5.7478 8.7628,23.1017 10.7448,16.86 4.5965,9.3065 3.6643,13.861 l 6.6916,-4.7796 c -12.7221,-4.2756 -19.3698,-20.8983 -19.1187,-32.1831 z"
           id="path5595"
           sodipodi:nodetypes="ccccc" />
        <path
           style="fill:#d38d5f;stroke:#999999;stroke-width:0.144201px;stroke-linecap:butt;stroke-linejoin:miter;stroke-opacity:1"
           d="m -517.86869,-4557.6989 c 1.9137,5.6419 3.0993,9.5229 2.5491,22.1457 l 1.5933,-1.9118 c -1.6994,-12.8811 -2.443,-13.804 -4.1424,-20.2339 z"
           id="path5597"
           sodipodi:nodetypes="cccc" />
        <path
           style="fill:none;stroke:#999999;stroke-width:13;stroke-linecap:butt;stroke-linejoin:miter;stroke-miterlimit:4;stroke-dasharray:none;stroke-opacity:1"
           d="m -663.60708,-4540.9114 c 38.54189,-72.1351 83.54159,-136.3221 178.59369,-138.9062 107.3278,13.6778 142.3499,73.0225 167.0183,138.9062 z"
           id="path5599"
           sodipodi:nodetypes="cccc" />
        <path
           style="fill:none;stroke:#999999;stroke-width:8.75565;stroke-linecap:butt;stroke-linejoin:miter;stroke-miterlimit:4;stroke-dasharray:none;stroke-opacity:1"
           d="m -638.89579,-4582.7389 19.1938,35.5975 57.5815,-111.6465 57.5814,111.6465 51.1836,-121.3549 73.5763,124.591 27.1914,-43.6877 -20.7934,-40.4518 -9.597,-11.3263 -38.3875,97.0839 -68.778,-122.973 -57.5814,121.3549 -43.1861,-97.0839 -19.1939,24.2709 23.9923,67.9588 59.1809,-118.1188 63.9795,124.5911 41.5867,-110.0286 68.7779,111.6467"
           id="path5601" />
      </g>
      <g
         id="g5609"
         transform="matrix(0.07404812,0,0,0.07404812,479.84304,273.20372)"
         style="stroke:#999999;stroke-linecap:butt">
        <path
           style="fill:#999999;fill-opacity:1;stroke:#999999;stroke-width:0.264583px;stroke-linecap:butt;stroke-linejoin:miter;stroke-opacity:1"
           d="m 3322.6682,-4426.3196 -3.3073,-585.3906 81.0286,-24.8047 -34.7265,41.3411 4.9609,540.7422 -13.2291,29.7656 z"
           id="path5605" />
        <path
           style="fill:none;stroke:#999999;stroke-width:9;stroke-linecap:butt;stroke-linejoin:miter;stroke-miterlimit:4;stroke-dasharray:none;stroke-opacity:1"
           d="m 3405.3505,-5137.3873 -3.3073,610.1953 -26.4583,104.1797 -34.7266,-3.3073 -4.9609,-52.9167 h 51.263 l 8.2682,-36.3802 -33.0729,-1.6536 -1.6537,-36.3802 41.3412,1.6536 -3.3073,-41.3411 -33.0729,3.3073 -3.3073,-36.3802 38.0338,1.6536 -1.6536,-41.3411 -39.6875,3.3072 v -31.4192 l 41.3411,-1.6537 -1.6536,-44.6484 -38.0339,4.9609 v -36.3802 l 41.3412,-1.6536 -1.6537,-39.6875 -41.3411,3.3073 1.6536,-31.4193 h 36.3803 l -1.6537,-44.6484 -36.3802,3.3073 v -26.4584 l 41.3411,-4.9609 v -41.3412 l -36.3802,1.6537 -3.3073,-24.8047 41.3412,-33.0729 -9.9219,-16.5365"
           id="path5607"
           sodipodi:nodetypes="ccccccccccccccccccccccccccccccccccc" />
      </g>
      <g
         id="g5621"
         transform="matrix(0.11463892,0,0,0.11463892,260.73561,448.40866)"
         style="stroke:#999999;stroke-linecap:butt">
        <circle
           style="fill:#999999;fill-opacity:1;fill-rule:evenodd;stroke:#999999;stroke-width:7.47621;stroke-linecap:butt;stroke-linejoin:round;stroke-miterlimit:4;stroke-dasharray:none;stroke-opacity:1;paint-order:stroke markers fill"
           id="circle5611"
           cx="3649.9407"
           cy="-4694.0664"
           r="30.596909" />
        <path
           style="fill:#999999;fill-opacity:1;stroke:#999999;stroke-width:0.219787px;stroke-linecap:butt;stroke-linejoin:miter;stroke-opacity:1"
           d="m 3643.7687,-4723.1604 0.4857,-28.1686 -6.7993,-7.285 h 12.6273 v 36.9106 z"
           id="path5613" />
        <path
           style="fill:#999999;fill-opacity:1;stroke:#999999;stroke-width:0.219787px;stroke-linecap:butt;stroke-linejoin:miter;stroke-opacity:1"
           d="m 3657.7732,-4723.1604 -0.4857,-28.1686 6.7993,-7.285 h -12.6273 v 36.9106 z"
           id="path5615" />
        <path
           style="fill:#999999;fill-opacity:1;stroke:#999999;stroke-width:0.219787px;stroke-linecap:butt;stroke-linejoin:miter;stroke-opacity:1"
           d="m 3651.5394,-4972.7922 -11.656,699.3577 9.7133,-1.9427 z"
           id="path5617" />
        <path
           style="fill:#999999;fill-opacity:1;stroke:#999999;stroke-width:0.219787px;stroke-linecap:butt;stroke-linejoin:miter;stroke-opacity:1"
           d="m 3649.0226,-4972.7922 11.6559,699.3577 -9.7133,-1.9427 z"
           id="path5619" />
      </g>
      <g
         id="g5647"
         transform="matrix(0.08073039,0,0,0.06499926,357.89208,250.83293)"
         style="fill:#999999;fill-opacity:1;stroke:#999999;stroke-linecap:butt;stroke-opacity:0.866667">
        <rect
           style="opacity:1;fill:#999999;fill-opacity:1;fill-rule:evenodd;stroke:#999999;stroke-width:8.99999;stroke-linecap:butt;stroke-linejoin:round;stroke-miterlimit:4;stroke-dasharray:none;stroke-opacity:0.866667;paint-order:stroke markers fill"
           id="rect5623"
           width="187.08867"
           height="289.98743"
           x="3886.7671"
           y="-4784.7925" />
        <rect
           style="opacity:1;fill:#999999;fill-opacity:1;fill-rule:evenodd;stroke:#999999;stroke-width:8.99999;stroke-linecap:butt;stroke-linejoin:round;stroke-miterlimit:4;stroke-dasharray:none;stroke-opacity:0.866667;paint-order:stroke markers fill"
           id="rect5625"
           width="79.512688"
           height="149.67093"
           x="3975.6343"
           y="-4822.2104" />
        <rect
           style="opacity:1;fill:#999999;fill-opacity:1;fill-rule:evenodd;stroke:#999999;stroke-width:8.99999;stroke-linecap:butt;stroke-linejoin:round;stroke-miterlimit:4;stroke-dasharray:none;stroke-opacity:0.866667;paint-order:stroke markers fill"
           id="rect5627"
           width="74.835464"
           height="84.189903"
           x="3928.8621"
           y="-4803.5015" />
        <rect
           style="opacity:1;fill:#999999;fill-opacity:1;fill-rule:evenodd;stroke:#999999;stroke-width:8.99999;stroke-linecap:butt;stroke-linejoin:round;stroke-miterlimit:4;stroke-dasharray:none;stroke-opacity:0.866667;paint-order:stroke markers fill"
           id="rect5629"
           width="233.86084"
           height="631.42426"
           x="4190.7861"
           y="-5126.2295" />
        <rect
           style="opacity:1;fill:#999999;fill-opacity:1;fill-rule:evenodd;stroke:#999999;stroke-width:8.99999;stroke-linecap:butt;stroke-linejoin:round;stroke-miterlimit:4;stroke-dasharray:none;stroke-opacity:0.866667;paint-order:stroke markers fill"
           id="rect5631"
           width="159.02538"
           height="149.67093"
           x="4218.8496"
           y="-5201.0649" />
        <rect
           style="opacity:1;fill:#999999;fill-opacity:1;fill-rule:evenodd;stroke:#999999;stroke-width:8.99999;stroke-linecap:butt;stroke-linejoin:round;stroke-miterlimit:4;stroke-dasharray:none;stroke-opacity:0.866667;paint-order:stroke markers fill"
           id="rect5633"
           width="949.47498"
           height="355.46848"
           x="4331.1025"
           y="-4850.2739" />
        <circle
           style="opacity:1;fill:#999999;fill-opacity:1;fill-rule:evenodd;stroke:#999999;stroke-width:8.99999;stroke-linecap:butt;stroke-linejoin:round;stroke-miterlimit:4;stroke-dasharray:none;stroke-opacity:0.866667;paint-order:stroke markers fill"
           id="circle5635"
           cx="4728.666"
           cy="-4794.147"
           r="224.50639" />
        <circle
           style="opacity:1;fill:#999999;fill-opacity:1;fill-rule:evenodd;stroke:#999999;stroke-width:8.99999;stroke-linecap:butt;stroke-linejoin:round;stroke-miterlimit:4;stroke-dasharray:none;stroke-opacity:0.866667;paint-order:stroke markers fill"
           id="circle5637"
           cx="4735.6821"
           cy="-4974.2197"
           r="86.528511" />
        <rect
           style="opacity:1;fill:#999999;fill-opacity:1;fill-rule:evenodd;stroke:#999999;stroke-width:8.99999;stroke-linecap:butt;stroke-linejoin:round;stroke-miterlimit:4;stroke-dasharray:none;stroke-opacity:0.866667;paint-order:stroke markers fill"
           id="rect5639"
           width="299.34186"
           height="505.1394"
           x="5130.9067"
           y="-4999.9448" />
        <rect
           style="opacity:1;fill:#999999;fill-opacity:1;fill-rule:evenodd;stroke:#999999;stroke-width:8.99999;stroke-linecap:butt;stroke-linejoin:round;stroke-miterlimit:4;stroke-dasharray:none;stroke-opacity:0.866667;paint-order:stroke markers fill"
           id="rect5641"
           width="463.04443"
           height="916.7345"
           x="5261.8691"
           y="-5411.54" />
        <rect
           style="opacity:1;fill:#999999;fill-opacity:1;fill-rule:evenodd;stroke:#999999;stroke-width:8.99999;stroke-linecap:butt;stroke-linejoin:round;stroke-miterlimit:4;stroke-dasharray:none;stroke-opacity:0.866667;paint-order:stroke markers fill"
           id="rect5643"
           width="280.633"
           height="313.3735"
           x="5542.502"
           y="-4822.2104" />
        <rect
           style="opacity:1;fill:#999999;fill-opacity:1;fill-rule:evenodd;stroke:#999999;stroke-width:8.99999;stroke-linecap:butt;stroke-linejoin:round;stroke-miterlimit:4;stroke-dasharray:none;stroke-opacity:0.866667;paint-order:stroke markers fill"
           id="rect5645"
           width="523.84827"
           height="210.47475"
           x="5612.6602"
           y="-4705.2803" />
      </g>
      <g
         id="g5669"
         transform="matrix(0.12211839,0,0,0.12211839,325.66233,492.81041)"
         style="stroke:#999999;stroke-linecap:butt">
        <rect
           style="opacity:0.8;fill:none;fill-opacity:1;fill-rule:evenodd;stroke:#999999;stroke-width:10;stroke-linecap:butt;stroke-linejoin:round;stroke-miterlimit:4;stroke-dasharray:none;stroke-opacity:1;paint-order:stroke markers fill"
           id="rect5649"
           width="158.75"
           height="304.27084"
           x="3540.2026"
           y="-4820.3774" />
        <path
           style="fill:none;stroke:#999999;stroke-width:13;stroke-linecap:butt;stroke-linejoin:miter;stroke-miterlimit:4;stroke-dasharray:none;stroke-opacity:1"
           d="m 3541.8562,-4818.7239 155.4427,155.4427 v 142.2135 l -157.9231,-157.9231 v 81.8554 l 76.4811,76.481 83.0957,-83.0955 -157.9232,-157.9232 93.5367,-54.0036 64.5693,64.5695 -157.2792,157.2791"
           id="path5651" />
        <path
           style="fill:none;stroke:#999999;stroke-width:15;stroke-linecap:butt;stroke-linejoin:miter;stroke-miterlimit:4;stroke-dasharray:none;stroke-opacity:1"
           d="m 3538.5489,-4689.7395 129.8112,-129.8112 31.4193,31.4192 -158.75,158.75 119.0625,112.4479 v -305.0976 h -58.7044 v 302.6172 h -47.9557 l 144.694,-144.694 v -53.7435 l -101.2858,-101.2859 -54.9838,54.9838 v 162.0573 h 155.4427 v -100.8724 h -158.75 v -52.9167 h 160.4037 -1.6537 v 208.3594 h -157.0963 v 26.4583 l 159.5768,-159.5768"
           id="path5653"
           sodipodi:nodetypes="cccccccccccccccccccccccc" />
        <rect
           style="opacity:1;fill:#999999;fill-opacity:1;fill-rule:evenodd;stroke:#999999;stroke-width:8.93775;stroke-linecap:butt;stroke-linejoin:round;stroke-miterlimit:4;stroke-dasharray:none;stroke-opacity:0.4;paint-order:stroke markers fill"
           id="rect5655"
           width="144.25067"
           height="33.788803"
           x="3553.074"
           y="-4857.9429" />
        <rect
           style="fill:#999999;fill-opacity:1;fill-rule:evenodd;stroke:#999999;stroke-width:7.99999;stroke-linecap:butt;stroke-linejoin:round;stroke-miterlimit:4;stroke-dasharray:none;paint-order:stroke markers fill"
           id="rect5657"
           width="85.989586"
           height="95.911461"
           x="3432.7156"
           y="-4936.1328" />
        <rect
           style="fill:#999999;fill-opacity:1;fill-rule:evenodd;stroke:#999999;stroke-width:8.67403;stroke-linecap:butt;stroke-linejoin:round;stroke-miterlimit:4;stroke-dasharray:none;paint-order:stroke markers fill"
           id="rect5659"
           width="37.35981"
           height="58.857208"
           x="3988.6777"
           y="-5015.1709" />
        <path
           style="fill:#999999;stroke:#999999;stroke-width:0.264583px;stroke-linecap:butt;stroke-linejoin:miter;stroke-opacity:1"
           d="m 3482.325,-4939.44 51.263,-11.5756 21.4974,13.2292 1.6536,28.112 -52.9166,11.5755 z"
           id="path5661" />
        <path
           style="fill:none;stroke:#999999;stroke-width:11;stroke-linecap:butt;stroke-linejoin:miter;stroke-miterlimit:4;stroke-dasharray:none;stroke-opacity:1"
           d="m 3548.4708,-4911.3281 446.4844,-76.0677 28.112,34.7266 -343.9584,115.7552 -165.3645,-3.3073 v -49.6094 l 482.8645,-87.6432 8.2683,14.8828 -472.9427,124.0235 36.3802,-67.7996 21.4974,59.5313 44.6484,-76.0677 36.3802,61.1849 31.4193,-71.1068 29.7656,57.8776 24.8047,-62.8385 31.4193,42.9948 24.8047,-54.5703 18.19,38.0338 36.3803,-49.6093 19.8437,33.0729 44.6484,-41.3412 16.5365,23.1511 34.7266,-33.0729 -31.4193,26.4583 v 23.151 l -51.263,19.8438 -8.2683,-23.1511 -59.5312,18.1901 6.6146,19.8438 -51.263,19.8437 -6.6146,-26.4583 -47.9558,14.8828 6.6146,19.8438 -47.9557,21.4974 v -21.4974 l -11.5755,8.2682 v -8.2682 l -23.1511,-9.9219 16.5365,-51.263 28.112,47.9557 26.4583,-54.5703 28.112,42.9948 21.4974,-51.263 29.7656,38.0338 41.3412,-52.9166 29.7656,28.1119 23.151,-34.7265 33.0729,21.4974 26.4584,-31.4193 3.3073,3.3073 -353.8802,61.1849 -42.9948,56.2239 -39.6875,-49.6093 -21.4974,16.5364 6.6146,47.9558 128.9843,-29.7657 -39.6875,-51.263"
           id="path5663"
           sodipodi:nodetypes="cccccccccccccccccccccccccccccccccccccccccccccccccccccccccc" />
        <rect
           style="fill:none;fill-opacity:1;fill-rule:evenodd;stroke:#999999;stroke-width:14.874;stroke-linecap:butt;stroke-linejoin:round;stroke-miterlimit:4;stroke-dasharray:none;stroke-opacity:1;paint-order:stroke markers fill"
           id="rect5665"
           width="180.37338"
           height="309.91425"
           x="3528.498"
           y="-4817.4634" />
        <path
           style="fill:#999999;fill-opacity:1;stroke:#999999;stroke-width:0;stroke-linecap:butt;stroke-linejoin:miter;stroke-miterlimit:4;stroke-dasharray:none;stroke-opacity:1"
           d="m 3952.2135,-4941.0937 -276.1589,82.6823 -84.3359,18.1901 -74.4141,6.6146"
           id="path5667" />
      </g>
    </g>
    <ellipse
       style="opacity:1;fill:#ffffff;fill-opacity:0.795181;fill-rule:evenodd;stroke:#000000;stroke-width:0.182209;stroke-linecap:butt;stroke-linejoin:round;stroke-miterlimit:4;stroke-dasharray:none;stroke-opacity:1;paint-order:stroke markers fill"
       id="path6061"
       cx="326.91226"
       cy="-496.52179"
       rx="4.1536579"
       ry="0.014520149"
       transform="scale(1,-1)" />
    <rect
       style="opacity:0;fill:#333333;fill-opacity:1;fill-rule:evenodd;stroke:#5fff5f;stroke-width:0;stroke-linecap:butt;stroke-linejoin:round;stroke-miterlimit:4;stroke-dasharray:none;stroke-opacity:1;paint-order:stroke markers fill"
       id="rect6776"
       width="89.829292"
       height="11.907619"
       x="-70.007233"
       y="258.7435"
       ry="5.9538093" />
    <rect
       style="opacity:0.92;fill:#333333;fill-opacity:1;fill-rule:evenodd;stroke:#5fff5f;stroke-width:0;stroke-linecap:butt;stroke-linejoin:round;stroke-miterlimit:4;stroke-dasharray:none;stroke-opacity:1;paint-order:stroke markers fill"
       id="rect6778"
       width="109.48994"
       height="0.0011554937"
       x="-69.583923"
       y="-259.63733"
       ry="0.00057774683"
       transform="scale(1,-1)" />
  </g>
</svg>
