<?xml version="1.0" encoding="UTF-8" standalone="no"?>
<svg
   xmlns:dc="http://purl.org/dc/elements/1.1/"
   xmlns:cc="http://creativecommons.org/ns#"
   xmlns:rdf="http://www.w3.org/1999/02/22-rdf-syntax-ns#"
   xmlns:svg="http://www.w3.org/2000/svg"
   xmlns="http://www.w3.org/2000/svg"
   xmlns:sodipodi="http://sodipodi.sourceforge.net/DTD/sodipodi-0.dtd"
   xmlns:inkscape="http://www.inkscape.org/namespaces/inkscape"
   width="429.95084mm"
   height="237.98317mm"
   viewBox="0 0 429.95083 237.98316"
   version="1.1"
   id="svg5737"
   inkscape:version="1.0.1 (3bc2e813f5, 2020-09-07)"
   sodipodi:docname="5.svg">
  <defs
     id="defs5731" />
  <sodipodi:namedview
     id="base"
     pagecolor="#ffffff"
     bordercolor="#666666"
     borderopacity="1.0"
     inkscape:pageopacity="0.0"
     inkscape:pageshadow="2"
     inkscape:zoom="0.35"
     inkscape:cx="147.59675"
     inkscape:cy="845.12838"
     inkscape:document-units="mm"
     inkscape:current-layer="layer1"
     inkscape:document-rotation="0"
     showgrid="false"
     inkscape:window-width="1267"
     inkscape:window-height="730"
     inkscape:window-x="83"
     inkscape:window-y="0"
     inkscape:window-maximized="0" />
  <metadata
     id="metadata5734">
    <rdf:RDF>
      <cc:Work
         rdf:about="">
        <dc:format>image/svg+xml</dc:format>
        <dc:type
           rdf:resource="http://purl.org/dc/dcmitype/StillImage" />
        <dc:title></dc:title>
      </cc:Work>
    </rdf:RDF>
  </metadata>
  <g
     inkscape:label="Layer 1"
     inkscape:groupmode="layer"
     id="layer1"
     transform="translate(-73.585266,-3.1655862)">
    <path
       style="fill:#82ff82;fill-opacity:1;stroke:#5fd35f;stroke-width:0.0299916px;stroke-linecap:butt;stroke-linejoin:miter;stroke-opacity:1"
       d="m 277.36874,183.96945 c 32.67711,-18.6722 96.17381,-21.25183 126.62219,-33.43619 51.53115,-20.62089 66.45259,-40.4792 99.32323,-6.77829 v 26.80969 c -0.43801,12.09248 -8.63107,13.60911 -17.29972,14.47721 z"
       id="path5679"
       sodipodi:nodetypes="cscccc" />
    <g
       id="g5697"
       transform="matrix(0.36195032,0,0,0.36195032,-1568.7671,182.61606)"
       inkscape:export-filename="C:\Users\Dell\Desktop\Dan\animations\stay3f8.png"
       inkscape:export-xdpi="74"
       inkscape:export-ydpi="74">
      <path
         style="fill:#784421;stroke:#784421;stroke-width:0.897362px;stroke-linecap:butt;stroke-linejoin:miter;stroke-opacity:1"
         d="m 5581.2326,-131.16371 c -5.4398,-62.63955 -0.7465,-122.2391 6.9403,-180.94065 l 4.4616,-0.49572 c -2.5464,64.40566 -4.8262,128.478 2.9748,179.94919 z"
         id="path5681"
         sodipodi:nodetypes="ccccc" />
      <path
         style="fill:#c87137;stroke:#c87137;stroke-width:0.897362px;stroke-linecap:butt;stroke-linejoin:miter;stroke-opacity:1"
         d="m 5585.1991,-242.70245 c 19.3976,-8.69683 22.8306,-36.26101 28.2562,-61.47026 h 4.4616 c -6.2503,28.47499 -14.5015,54.69905 -31.2309,71.38481 z"
         id="path5683"
         sodipodi:nodetypes="ccccc" />
      <path
         style="fill:#a05a2c;stroke:#a05a2c;stroke-width:1.06372px;stroke-linecap:butt;stroke-linejoin:miter;stroke-opacity:1"
         d="m 5584.2549,-242.8023 c -27.2299,3.80704 -37.6815,-21.52749 -39.8623,-61.22668 h -6.2944 c 6.5987,38.79733 17.7662,69.06672 44.059,71.10192 z"
         id="path5685"
         sodipodi:nodetypes="ccccc" />
      <path
         style="fill:#c87137;stroke:#c87137;stroke-width:0.897362px;stroke-linecap:butt;stroke-linejoin:miter;stroke-opacity:1"
         d="m 5584.455,-285.5829 c 3.9285,-2.99808 7.6023,-4.77942 5.701,20.07697 -1.416,45.50267 1.9779,135.20078 -5.9483,131.36785 l -3.4702,-1.9829 c -5.1183,-51.28777 0.8526,-100.01644 3.7175,-149.46192 z"
         id="path5687"
         sodipodi:nodetypes="ccccc" />
      <path
         style="fill:#8dd35f;stroke:#8dd35f;stroke-width:0.897362px;stroke-linecap:butt;stroke-linejoin:miter;stroke-opacity:1"
         d="m 5523.2327,-341.35227 c -17.8687,17.20335 -14.1867,35.67436 12.8888,55.52148 27.3364,17.8656 43.3458,10.46358 53.5383,-9.91452 8.521,4.55306 16.53,20.36776 26.2741,-1.98294 11.756,8.27807 19.5356,26.64963 47.5897,-6.44446 9.6213,-19.87018 -2.4583,-22.68966 -10.4102,-28.7522 16.452,4.05881 23.6924,-1.09406 24.2907,-12.88892 5.164,-13.64102 -6.7697,-17.0232 -13.8805,-23.2992 9.2041,-4.95728 10.9488,-9.91456 2.9747,-14.87183 l -7.4364,-1.98294 c 8.3044,-7.66524 1.8681,-18.60606 -0.9917,-28.75219 -8.2352,-10.40471 -18.9133,-6.15377 -29.743,-0.99147 0.4697,-13.77702 1.3936,-27.75598 -21.3166,-31.23085 -27.1743,-0.0634 -30.1806,14.08979 -35.692,26.76932 -6.17,-9.15371 -10.9749,-4.65356 -15.8636,-0.99147 l 0.4956,7.43593 c -10.4944,-0.86872 -16.2682,2.19627 -18.8377,7.93165 -3.6592,7.137 -4.6055,13.82183 7.4364,18.34193 -18.4418,0.3841 -24.1462,11.18976 -28.2568,23.29919 -0.1662,7.35328 -5.1675,14.22292 6.9402,22.80349 z"
         id="path5689"
         sodipodi:nodetypes="cccccccccccccccccccc" />
      <path
         style="fill:#5aa02c;stroke:#5aa02c;stroke-width:0.897362px;stroke-linecap:butt;stroke-linejoin:miter;stroke-opacity:1"
         d="m 5516.3549,-363.35021 c 5.7562,6.66393 11.1197,13.67927 23.2366,7.62182 0.8872,7.54026 4.3514,12.50354 18.3421,6.94018 1.2678,12.10855 11.5061,8.83915 21.8121,5.45303 -7.745,3.44628 -11.8557,16.88672 -24.2907,7.4359 -12.0761,6.96674 -18.6297,2.88884 -22.8038,-5.94875 -3.9936,3.27996 -7.1797,3.63706 -9.8519,0.31 -11.5847,-5.95207 -8.1646,-16.56957 -6.4444,-21.81202 z"
         id="path5691"
         sodipodi:nodetypes="cccccccc" />
      <path
         style="fill:#5aa02c;stroke:#5aa02c;stroke-width:0.839511px;stroke-linecap:butt;stroke-linejoin:miter;stroke-opacity:1"
         d="m 5665.3578,-384.29089 c -7.0532,4.25684 -14.5517,11.275 -23.5711,2.37192 -2.9768,6.44898 -7.4974,9.85832 -18.3268,0.85099 -4.6408,10.40159 -12.7983,4.52325 -20.9822,-1.47854 5.8888,5.31228 5.645,18.45883 19.4471,13.66117 8.7188,9.6999 15.7313,7.97448 22.0075,1.3253 2.6003,4.0759 5.6195,4.61951 8.9616,2.43555 15.6937,-4.86631 26.692,-13.79283 12.4639,-19.16639 z"
         id="path5693"
         sodipodi:nodetypes="cccccccc" />
      <path
         style="fill:#5aa02c;stroke:#5aa02c;stroke-width:0.897362px;stroke-linecap:butt;stroke-linejoin:miter;stroke-opacity:1"
         d="m 5513.3184,-326.35882 c 15.2052,25.31531 32.8864,29.68885 52.0517,25.96378 10.2949,0.15059 18.4561,-6.10086 24.7859,-17.8462 6.4834,5.8514 9.8566,19.47882 26.2741,0.49571 9.4829,11.1723 11.894,28.67317 46.3507,14.8718 -13.5654,15.24525 -26.6567,32.79937 -45.36,6.94022 -6.3474,13.53462 -14.8234,17.27648 -27.761,0.49575 -12.5697,27.80244 -33.2168,27.33501 -58.9906,8.92308 -25.6084,-25.53939 -20.2225,-30.04812 -17.3508,-39.84414 z"
         id="path5695"
         sodipodi:nodetypes="ccccccccc" />
    </g>
    <path
       style="fill:#82ff82;fill-opacity:1;stroke:#5fd35f;stroke-width:0.0299916px;stroke-linecap:butt;stroke-linejoin:miter;stroke-opacity:1"
       d="m 277.36874,182.79646 c 32.67711,18.67221 96.17381,21.25185 126.62219,33.4362 51.53115,20.6209 66.45259,40.47921 99.32323,6.77829 v -26.80969 c -0.43801,-12.09248 -8.63107,-13.60911 -17.29972,-14.47721 z"
       id="path5699"
       sodipodi:nodetypes="cscccc" />
    <rect
       style="opacity:0.9;fill:#82ff82;fill-opacity:1;fill-rule:evenodd;stroke:#008080;stroke-width:0;stroke-linecap:round;stroke-linejoin:round;stroke-miterlimit:4;stroke-dasharray:none;stroke-opacity:0.52549;paint-order:stroke markers fill"
       id="rect5701"
       width="39.415031"
       height="43.979023"
       x="464.12106"
       y="160.76511" />
    <ellipse
       style="opacity:1;fill:#ffffff;fill-opacity:0.795181;fill-rule:evenodd;stroke:#000000;stroke-width:0.182209;stroke-linecap:butt;stroke-linejoin:round;stroke-miterlimit:4;stroke-dasharray:none;stroke-opacity:1;paint-order:stroke markers fill"
       id="path6061"
       cx="470.50476"
       cy="-240.94391"
       rx="4.1536579"
       ry="0.014520149"
       transform="scale(1,-1)" />
    <rect
       style="opacity:0;fill:#333333;fill-opacity:1;fill-rule:evenodd;stroke:#5fff5f;stroke-width:0;stroke-linecap:butt;stroke-linejoin:round;stroke-miterlimit:4;stroke-dasharray:none;stroke-opacity:1;paint-order:stroke markers fill"
       id="rect6776"
       width="89.829292"
       height="11.907619"
       x="73.585266"
       y="3.1655867"
       ry="5.9538093" />
    <rect
       style="opacity:0.92;fill:#333333;fill-opacity:1;fill-rule:evenodd;stroke:#5fff5f;stroke-width:0;stroke-linecap:butt;stroke-linejoin:round;stroke-miterlimit:4;stroke-dasharray:none;stroke-opacity:1;paint-order:stroke markers fill"
       id="rect6778"
       width="109.48994"
       height="0.0011554937"
       x="74.008575"
       y="-4.0594316"
       ry="0.00057774683"
       transform="scale(1,-1)" />
  </g>
</svg>
