<?xml version="1.0" encoding="UTF-8" standalone="no"?>
<svg
   xmlns:dc="http://purl.org/dc/elements/1.1/"
   xmlns:cc="http://creativecommons.org/ns#"
   xmlns:rdf="http://www.w3.org/1999/02/22-rdf-syntax-ns#"
   xmlns:svg="http://www.w3.org/2000/svg"
   xmlns="http://www.w3.org/2000/svg"
   xmlns:sodipodi="http://sodipodi.sourceforge.net/DTD/sodipodi-0.dtd"
   xmlns:inkscape="http://www.inkscape.org/namespaces/inkscape"
   width="427.98438mm"
   height="509.98196mm"
   viewBox="0 0 427.98436 509.98195"
   version="1.1"
   id="svg618"
   inkscape:version="1.0.1 (3bc2e813f5, 2020-09-07)"
   sodipodi:docname="b1.svg">
  <defs
     id="defs612" />
  <sodipodi:namedview
     id="base"
     pagecolor="#ffffff"
     bordercolor="#666666"
     borderopacity="1.0"
     inkscape:pageopacity="0.0"
     inkscape:pageshadow="2"
     inkscape:zoom="0.35"
     inkscape:cx="560.65379"
     inkscape:cy="484.1084"
     inkscape:document-units="mm"
     inkscape:current-layer="layer1"
     inkscape:document-rotation="0"
     showgrid="false"
     inkscape:window-width="1267"
     inkscape:window-height="730"
     inkscape:window-x="137"
     inkscape:window-y="6"
     inkscape:window-maximized="0" />
  <metadata
     id="metadata615">
    <rdf:RDF>
      <cc:Work
         rdf:about="">
        <dc:format>image/svg+xml</dc:format>
        <dc:type
           rdf:resource="http://purl.org/dc/dcmitype/StillImage" />
        <dc:title></dc:title>
      </cc:Work>
    </rdf:RDF>
  </metadata>
  <g
     inkscape:label="Layer 1"
     inkscape:groupmode="layer"
     id="layer1"
     transform="translate(42.506322,157.94323)">
    <path
       style="fill:#37c837;stroke:#37c837;stroke-width:0.264583px;stroke-linecap:butt;stroke-linejoin:miter;stroke-opacity:1"
       d="m 344.66226,-68.104613 c -1.47784,-8.10515 -2.17123,-16.36718 -7.77444,-23.64724 -5.37197,-12.191907 4.81753,-23.272277 10.68985,-34.661007 10.33143,-2.55341 19.02151,11.67523 12.63346,25.59085 -9.40943,14.789107 -8.42193,23.080117 -11.66164,34.013147 z"
       id="path3102"
       sodipodi:nodetypes="cccccc" />
    <g
       id="g3076"
       transform="matrix(0.56390738,0,0,0.56390738,68.328983,-391.25032)">
      <rect
         style="opacity:1;fill:#803300;fill-opacity:1;fill-rule:evenodd;stroke:#803300;stroke-width:6.32062;stroke-linecap:round;stroke-linejoin:round;stroke-miterlimit:4;stroke-dasharray:none;stroke-opacity:1;paint-order:stroke markers fill"
         id="rect3050"
         width="56.709049"
         height="75.612068"
         x="259.28598"
         y="456.77042"
         ry="4.9744778" />
      <rect
         style="opacity:1;fill:#b3b3b3;fill-opacity:1;fill-rule:evenodd;stroke:#ffffff;stroke-width:5.82083;stroke-linecap:round;stroke-linejoin:round;stroke-miterlimit:4;stroke-dasharray:none;stroke-opacity:1;paint-order:stroke markers fill"
         id="rect2967"
         width="52.224873"
         height="69.633163"
         x="261.12436"
         y="459.94537"
         ry="4.5811291" />
      <g
         id="g3048"
         transform="matrix(0.47061553,0,0,0.47061553,106.27013,277.39261)">
        <path
           style="fill:#000000;stroke:#000000;stroke-width:0.264583px;stroke-linecap:butt;stroke-linejoin:miter;stroke-opacity:1"
           d="m 365.5141,465.04239 -25.08168,10.53661 46.15487,45.35318 40.42847,-47.8728 -18.32451,-8.47508 z"
           id="path3025" />
        <circle
           style="opacity:1;fill:#ffb380;fill-opacity:1;fill-rule:evenodd;stroke:#ffb380;stroke-width:2.975;stroke-linecap:round;stroke-linejoin:round;stroke-miterlimit:4;stroke-dasharray:none;stroke-opacity:1;paint-order:stroke markers fill"
           id="path3005"
           cx="386.58731"
           cy="445.74438"
           r="13.521541" />
        <path
           style="fill:#000000;stroke:#000000;stroke-width:0;stroke-linecap:butt;stroke-linejoin:miter;stroke-miterlimit:4;stroke-dasharray:none;stroke-opacity:1"
           d="m 369.179,422.93951 v -18.55356 c 2.63874,-9.5036 29.74876,-10.82741 32.75508,0 v 17.40829 z"
           id="path2991"
           sodipodi:nodetypes="ccccc" />
        <rect
           style="opacity:1;fill:#ffb380;fill-opacity:1;fill-rule:evenodd;stroke:#ffb380;stroke-width:2.64583;stroke-linecap:round;stroke-linejoin:round;stroke-miterlimit:4;stroke-dasharray:none;stroke-opacity:1;paint-order:stroke markers fill"
           id="rect3007"
           width="27.143188"
           height="23.478287"
           x="372.80045"
           y="422.62347"
           ry="0.68717051" />
        <rect
           style="opacity:1;fill:#000000;fill-opacity:1;fill-rule:evenodd;stroke:#000000;stroke-width:0;stroke-linecap:round;stroke-linejoin:round;stroke-miterlimit:4;stroke-dasharray:none;stroke-opacity:1;paint-order:stroke markers fill"
           id="rect2993"
           width="48.33091"
           height="4.3520627"
           x="361.83334"
           y="421.56522"
           ry="0.68716937" />
        <path
           style="fill:#217821;stroke:#217821;stroke-width:0.264583px;stroke-linecap:butt;stroke-linejoin:miter;stroke-opacity:1"
           d="m 383.72408,424.61393 c -5.35255,2.6302 -10.35277,5.43656 -10.30753,10.76566 6.26848,-1.60571 10.14071,-4.88879 10.30753,-10.76566 z"
           id="path2997"
           sodipodi:nodetypes="ccc" />
        <path
           style="fill:#217821;fill-opacity:1;stroke:#217821;stroke-width:0.264583px;stroke-linecap:butt;stroke-linejoin:miter;stroke-opacity:1"
           d="m 389.90861,422.89602 c 0.90538,3.08722 0.16359,8.57032 4.12303,7.21526 3.96546,-0.82761 6.45628,-0.50827 7.67339,0.80172 -1.27288,-3.00431 0.70434,-7.05705 -9.39133,-7.2153 z"
           id="path2999"
           sodipodi:nodetypes="ccccc" />
        <path
           style="fill:#217821;fill-opacity:1;stroke:#217821;stroke-width:0.264583px;stroke-linecap:butt;stroke-linejoin:miter;stroke-opacity:1"
           d="m 383.38049,421.6362 c -1.87367,-0.62229 -3.54569,-1.7487 -4.81018,-3.89395 -2.78845,-2.4147 -5.14982,-2.26691 -7.3298,-1.03076 1.2557,1.86053 3.03122,4.03295 2.86321,5.03925 2.39334,4.728 5.09798,3.54133 7.78791,2.63414 z"
           id="path3001"
           sodipodi:nodetypes="cccccc" />
        <path
           style="fill:none;stroke:#99ff55;stroke-width:2.64583;stroke-linecap:butt;stroke-linejoin:miter;stroke-miterlimit:4;stroke-dasharray:none;stroke-opacity:1"
           d="m 383.38049,421.6362 3.77944,-1.03076 2.74868,2.29058 -2.63414,-2.40509 -0.91623,11.4528 0.91623,-11.4528 -3.55039,4.123"
           id="path3003" />
        <rect
           style="opacity:1;fill:#ffb380;fill-opacity:1;fill-rule:evenodd;stroke:#ffb380;stroke-width:2.64583;stroke-linecap:round;stroke-linejoin:round;stroke-miterlimit:4;stroke-dasharray:none;stroke-opacity:1;paint-order:stroke markers fill"
           id="rect3027"
           width="23.23358"
           height="16.37434"
           x="374.9054"
           y="453.47504"
           ry="0.68717051" />
        <circle
           style="opacity:1;fill:#37c837;fill-opacity:1;fill-rule:evenodd;stroke:#37c837;stroke-width:0;stroke-linecap:round;stroke-linejoin:round;stroke-miterlimit:4;stroke-dasharray:none;stroke-opacity:1;paint-order:stroke markers fill"
           id="path2995"
           cx="385.85666"
           cy="441.83661"
           r="10.651125" />
        <ellipse
           style="opacity:1;fill:#ffb380;fill-opacity:1;fill-rule:evenodd;stroke:#ffb380;stroke-width:2.64583;stroke-linecap:round;stroke-linejoin:round;stroke-miterlimit:4;stroke-dasharray:none;stroke-opacity:1;paint-order:stroke markers fill"
           id="path3009"
           cx="372.15674"
           cy="433.94797"
           rx="3.4358468"
           ry="5.4400911" />
        <ellipse
           style="opacity:1;fill:#ffb380;fill-opacity:1;fill-rule:evenodd;stroke:#ffb380;stroke-width:2.64583;stroke-linecap:round;stroke-linejoin:round;stroke-miterlimit:4;stroke-dasharray:none;stroke-opacity:1;paint-order:stroke markers fill"
           id="ellipse3011"
           cx="399.64352"
           cy="433.94797"
           rx="3.4358468"
           ry="5.4400911" />
        <path
           style="fill:#782121;stroke:#782121;stroke-width:0.264583px;stroke-linecap:butt;stroke-linejoin:miter;stroke-opacity:1"
           d="m 382.80785,467.21843 2.74868,8.81867 2.29058,-0.11451 1.94696,-9.50584 h -7.21527 l 0.11454,1.48886 z"
           id="path3021" />
        <path
           style="fill:#ffffff;stroke:#ffffff;stroke-width:0.264583px;stroke-linecap:butt;stroke-linejoin:miter;stroke-opacity:1"
           d="m 385.32748,463.43899 -2.63414,11.45284 -7.67339,-5.03926 -2.74868,-8.13149 1.60338,-6.52812 c 2.87291,3.34985 5.3447,6.95495 11.45283,8.24603 z"
           id="path3017"
           sodipodi:nodetypes="cccccc" />
        <path
           style="fill:#782121;stroke:#782121;stroke-width:0.264583px;stroke-linecap:butt;stroke-linejoin:miter;stroke-opacity:1"
           d="m 385.55653,476.0371 -6.06999,23.36377 7.55885,14.08697 8.8187,-12.82716 -8.01698,-24.73809 z"
           id="path3023" />
        <path
           style="fill:#333333;stroke:#333333;stroke-width:0.264583px;stroke-linecap:butt;stroke-linejoin:miter;stroke-opacity:1"
           d="m 374.90541,453.47505 c -3.18542,4.73552 -6.48851,11.35373 -9.39131,11.56734 l -2.06152,9.16226 1.71794,3.43585 -1.83246,2.29058 c 6.77694,14.10922 13.22814,28.3665 23.24923,41.0011 l 4.69567,-8.70415 c -8.65485,-4.47755 -14.43844,-22.52829 -16.37755,-58.75298 z"
           id="path3013"
           sodipodi:nodetypes="cccccccc" />
        <path
           style="fill:#ffffff;stroke:#ffffff;stroke-width:0.273551px;stroke-linecap:butt;stroke-linejoin:miter;stroke-opacity:1"
           d="m 387.11361,463.44002 2.81759,11.44532 8.20779,-5.03595 2.94011,-8.12615 -1.71505,-6.52383 c -3.07299,3.34765 -5.71692,6.95038 -12.25044,8.24061 z"
           id="path3019"
           sodipodi:nodetypes="cccccc" />
        <path
           style="fill:#333333;stroke:#333333;stroke-width:0.264583px;stroke-linecap:butt;stroke-linejoin:miter;stroke-opacity:1"
           d="m 399.1854,453.01692 c 0.072,16.67828 -3.97838,32.37503 -10.30756,47.52922 -3.06572,10.23042 -5.46912,20.50499 -4.00846,31.03716 0.65468,-8.17872 2.90646,-16.56575 10.53658,-25.65431 5.47443,-7.34529 10.48851,-18.83372 15.69037,-28.63207 l -3.32131,-2.97773 1.94696,-3.43585 -1.03073,-6.29904 c -4.64031,-1.96361 -6.9174,-6.96565 -9.50585,-11.56738 z"
           id="path3015"
           sodipodi:nodetypes="ccccccccc" />
      </g>
    </g>
    <rect
       style="fill:#803300;fill-opacity:1;fill-rule:evenodd;stroke:#803300;stroke-width:2.88385;stroke-linecap:round;stroke-linejoin:round;stroke-miterlimit:4;stroke-dasharray:none;stroke-opacity:1;paint-order:stroke markers fill"
       id="rect3052"
       width="125.44868"
       height="7.5364256"
       x="250.19235"
       y="-33.972443"
       ry="1.9291708"
       rx="4.5079794" />
    <rect
       style="fill:#d45500;fill-opacity:1;fill-rule:evenodd;stroke:#d45500;stroke-width:2.64583;stroke-linecap:round;stroke-linejoin:round;stroke-miterlimit:4;stroke-dasharray:none;stroke-opacity:1;paint-order:stroke markers fill"
       id="rect3078"
       width="10.689846"
       height="43.407253"
       x="258.17163"
       y="-80.090187"
       rx="3.6784229"
       ry="1.9900954" />
    <rect
       style="fill:#008080;fill-opacity:1;fill-rule:evenodd;stroke:#008080;stroke-width:2.64583;stroke-linecap:round;stroke-linejoin:round;stroke-miterlimit:4;stroke-dasharray:none;stroke-opacity:1;paint-order:stroke markers fill"
       id="rect3080"
       width="10.689846"
       height="43.407253"
       x="276.84491"
       y="-57.85062"
       rx="3.6784229"
       ry="1.9900954"
       transform="rotate(-4.5433385)" />
    <rect
       style="fill:#a02c5a;fill-opacity:1;fill-rule:evenodd;stroke:#a02c5a;stroke-width:2.64583;stroke-linecap:round;stroke-linejoin:round;stroke-miterlimit:4;stroke-dasharray:none;stroke-opacity:1;paint-order:stroke markers fill"
       id="rect3082"
       width="10.689846"
       height="43.407253"
       x="294.09683"
       y="15.240221"
       rx="3.6784229"
       ry="1.9900953"
       transform="rotate(-18.191495)" />
    <rect
       style="fill:#d45500;fill-opacity:1;fill-rule:evenodd;stroke:#d45500;stroke-width:2.64583;stroke-linecap:round;stroke-linejoin:round;stroke-miterlimit:4;stroke-dasharray:none;stroke-opacity:1;paint-order:stroke markers fill"
       id="rect3084"
       width="17.492462"
       height="25.677422"
       x="340.77502"
       y="-62.360329"
       rx="4.5079708"
       ry="1.9291698" />
    <path
       style="fill:#217821;stroke:#217821;stroke-width:0.264583px;stroke-linecap:butt;stroke-linejoin:miter;stroke-opacity:1"
       d="m 362.15473,-107.94858 c -2.33018,13.713237 -6.11534,27.426477 -13.60524,41.139717 l -2.91542,-8.09837 c -0.22418,-7.90435 -0.68882,-16.44992 0.32393,-21.05576 5.04386,-9.031387 11.20635,-2.47523 16.19673,-11.985587 z"
       id="path3104"
       sodipodi:nodetypes="ccccc" />
    <path
       sodipodi:type="star"
       style="fill:#d45500;fill-opacity:1;fill-rule:evenodd;stroke:#d45500;stroke-width:2.64583;stroke-linecap:round;stroke-linejoin:round;stroke-miterlimit:4;stroke-dasharray:none;stroke-opacity:1;paint-order:stroke markers fill"
       id="path3092"
       sodipodi:sides="3"
       sodipodi:cx="349.52127"
       sodipodi:cy="59.800495"
       sodipodi:r1="21.616425"
       sodipodi:r2="10.808213"
       sodipodi:arg1="0.52359878"
       sodipodi:arg2="1.5707963"
       inkscape:flatsided="false"
       inkscape:rounded="0"
       inkscape:randomized="0"
       inkscape:transform-center-x="-5.3600467e-06"
       inkscape:transform-center-y="5.4041045"
       transform="scale(1,-1)"
       d="m 368.24164,70.608708 -18.72037,0 -18.72037,-10e-7 9.36018,-16.212318 9.36019,-16.212318 9.36019,16.212317 z" />
    <path
       style="fill:#008000;stroke:#008000;stroke-width:0.264583px;stroke-linecap:butt;stroke-linejoin:miter;stroke-opacity:1"
       d="m 347.57767,-126.41286 c -4.31284,9.94238 -12.59117,14.7054 -12.30953,30.773797 0.96116,3.28737 2.68976,5.74953 4.37314,8.26033 -1.39644,-11.15573 3.55061,-25.400287 7.93639,-39.034127 z"
       id="path3106"
       sodipodi:nodetypes="cccc" />
    <rect
       style="fill:#ffccaa;fill-opacity:1;fill-rule:evenodd;stroke:#ffccaa;stroke-width:2.07868;stroke-linecap:round;stroke-linejoin:round;stroke-miterlimit:4;stroke-dasharray:none;stroke-opacity:1;paint-order:stroke markers fill"
       id="rect3108"
       width="6.9807267"
       height="2.8577106"
       x="259.62164"
       y="-75.805336" />
    <ellipse
       style="opacity:0.01;fill:#0f333c;fill-rule:evenodd;stroke:#999999;stroke-width:0;stroke-linejoin:round;paint-order:stroke markers fill"
       id="path881"
       cx="-33.43615"
       cy="-150.16879"
       rx="9.0701723"
       ry="7.7744346" />
    <ellipse
       style="opacity:0.01;fill:#0f333c;fill-rule:evenodd;stroke:#999999;stroke-width:0;stroke-linejoin:round;paint-order:stroke markers fill"
       id="path881-5"
       cx="376.40787"
       cy="344.26431"
       rx="9.0701723"
       ry="7.7744346" />
  </g>
</svg>
