<?xml version="1.0" encoding="UTF-8" standalone="no"?>
<svg
   xmlns:dc="http://purl.org/dc/elements/1.1/"
   xmlns:cc="http://creativecommons.org/ns#"
   xmlns:rdf="http://www.w3.org/1999/02/22-rdf-syntax-ns#"
   xmlns:svg="http://www.w3.org/2000/svg"
   xmlns="http://www.w3.org/2000/svg"
   xmlns:sodipodi="http://sodipodi.sourceforge.net/DTD/sodipodi-0.dtd"
   xmlns:inkscape="http://www.inkscape.org/namespaces/inkscape"
   width="427.98434mm"
   height="509.98203mm"
   viewBox="0 0 427.98433 509.98201"
   version="1.1"
   id="svg618"
   inkscape:version="1.0.1 (3bc2e813f5, 2020-09-07)"
   sodipodi:docname="b2.svg">
  <defs
     id="defs612" />
  <sodipodi:namedview
     id="base"
     pagecolor="#ffffff"
     bordercolor="#666666"
     borderopacity="1.0"
     inkscape:pageopacity="0.0"
     inkscape:pageshadow="2"
     inkscape:zoom="0.35"
     inkscape:cx="863.29299"
     inkscape:cy="698.9196"
     inkscape:document-units="mm"
     inkscape:current-layer="layer1"
     inkscape:document-rotation="0"
     showgrid="false"
     inkscape:window-width="1267"
     inkscape:window-height="730"
     inkscape:window-x="137"
     inkscape:window-y="6"
     inkscape:window-maximized="0" />
  <metadata
     id="metadata615">
    <rdf:RDF>
      <cc:Work
         rdf:about="">
        <dc:format>image/svg+xml</dc:format>
        <dc:type
           rdf:resource="http://purl.org/dc/dcmitype/StillImage" />
        <dc:title></dc:title>
      </cc:Work>
    </rdf:RDF>
  </metadata>
  <g
     inkscape:label="Layer 1"
     inkscape:groupmode="layer"
     id="layer1"
     transform="translate(122.57961,240.107)">
    <g
       id="g2110"
       transform="matrix(0.78024733,0,0,0.78024733,-390.253,-501.33321)">
      <path
         style="fill:#782144;stroke:#ff5555;stroke-width:0;stroke-linecap:butt;stroke-linejoin:miter;stroke-miterlimit:4;stroke-dasharray:none;stroke-opacity:1"
         d="m 723.53795,644.49246 c 30.15801,-13.47335 60.31602,-13.0141 90.47403,0 l 11.03302,96.22994 -104.92166,0.62083 z"
         id="path320"
         sodipodi:nodetypes="ccccc" />
      <path
         style="opacity:0.287097;fill:none;stroke:#2ca02c;stroke-width:1.07528;stroke-linecap:butt;stroke-linejoin:miter;stroke-miterlimit:4;stroke-dasharray:none;stroke-opacity:1"
         d="m 724.54256,691.57199 h 88.77988"
         id="path1203" />
      <path
         style="opacity:0.287097;fill:none;stroke:#2ca02c;stroke-width:1.07528;stroke-linecap:butt;stroke-linejoin:miter;stroke-miterlimit:4;stroke-dasharray:none;stroke-opacity:1"
         d="m 724.54256,666.21757 h 88.77988"
         id="path1209" />
      <path
         style="opacity:0.287097;fill:none;stroke:#16502d;stroke-width:6.92954;stroke-linecap:butt;stroke-linejoin:miter;stroke-miterlimit:4;stroke-dasharray:none;stroke-opacity:1"
         d="m 724.54256,685.74047 h 88.77988"
         id="path1201" />
      <path
         style="opacity:0.287097;fill:none;stroke:#d5ffd5;stroke-width:1.07528;stroke-linecap:butt;stroke-linejoin:miter;stroke-miterlimit:4;stroke-dasharray:none;stroke-opacity:1"
         d="m 724.54256,720.22249 h 88.77988"
         id="path1199" />
      <path
         style="opacity:0.287097;fill:none;stroke:#16502d;stroke-width:6.92954;stroke-linecap:butt;stroke-linejoin:miter;stroke-miterlimit:4;stroke-dasharray:none;stroke-opacity:1"
         d="m 724.54256,711.85553 h 88.77988"
         id="path1195" />
      <path
         style="opacity:0.287097;fill:none;stroke:#16502d;stroke-width:6.92954;stroke-linecap:butt;stroke-linejoin:miter;stroke-miterlimit:4;stroke-dasharray:none;stroke-opacity:1"
         d="m 724.54256,660.38605 h 88.77988"
         id="path1207" />
      <path
         style="opacity:0.287097;fill:none;stroke:#d5ffd5;stroke-width:1.07528;stroke-linecap:butt;stroke-linejoin:miter;stroke-miterlimit:4;stroke-dasharray:none;stroke-opacity:1"
         d="m 724.54256,668.75301 h 88.77988"
         id="path1211" />
      <path
         style="opacity:0.287097;fill:none;stroke:#d5ffd5;stroke-width:1.07528;stroke-linecap:butt;stroke-linejoin:miter;stroke-miterlimit:4;stroke-dasharray:none;stroke-opacity:1"
         d="m 724.54256,694.10743 h 88.77988"
         id="path1205" />
      <path
         style="fill:#50162d;stroke:#ff2a2a;stroke-width:0;stroke-linecap:butt;stroke-linejoin:miter;stroke-miterlimit:4;stroke-dasharray:none;stroke-opacity:1"
         d="m 701.18777,714.64719 c 0.0766,-15.59753 2.41113,-33.45303 -1.24167,-45.32119 l -5.27713,-23.90228 c -0.66817,-4.17837 1.28938,-6.16862 5.58755,-6.20838 8.60563,0.35045 17.1092,0.871 23.28143,5.27712 4.78148,13.8654 1.79925,27.73078 2.17293,41.59617 l -1.5521,26.07521 z"
         id="path316"
         sodipodi:nodetypes="cccccccc" />
      <path
         style="opacity:0.287097;fill:none;stroke:#2ca02c;stroke-width:1.07528;stroke-linecap:butt;stroke-linejoin:miter;stroke-miterlimit:4;stroke-dasharray:none;stroke-opacity:1"
         d="m 724.54256,717.68705 h 88.77988"
         id="path1197" />
      <path
         style="fill:#a02c5a;stroke:#ff5555;stroke-width:0;stroke-linecap:butt;stroke-linejoin:miter;stroke-miterlimit:4;stroke-dasharray:none;stroke-opacity:1"
         d="m 684.73556,726.44312 c 4.15778,-10.76521 12.52148,-19.12703 28.24814,-23.28145 5.09804,0.91532 10.17806,1.97482 13.65844,15.83138 l -0.93126,18.62516 -5.89796,14.90011 z"
         id="path312"
         sodipodi:nodetypes="cccccc" />
      <path
         style="fill:#c87137;stroke:#c87137;stroke-width:0;stroke-linecap:butt;stroke-linejoin:miter;stroke-miterlimit:4;stroke-dasharray:none;stroke-opacity:1"
         d="m 702.42945,803.73749 v 23.59185 h 5.27712 l 10.55426,-24.2127 z"
         id="path308" />
      <path
         style="fill:#c87137;stroke:#c87137;stroke-width:0;stroke-linecap:butt;stroke-linejoin:miter;stroke-miterlimit:4;stroke-dasharray:none;stroke-opacity:1"
         d="m 837.80729,800.94371 v 26.38563 h -5.27712 l -10.55425,-24.2127 z"
         id="path310"
         sodipodi:nodetypes="ccccc" />
      <path
         style="fill:#50162d;stroke:#ff2a2a;stroke-width:0;stroke-linecap:butt;stroke-linejoin:miter;stroke-miterlimit:4;stroke-dasharray:none;stroke-opacity:1"
         d="m 836.36215,714.64719 c -0.0766,-15.59753 -2.41111,-33.45303 1.24168,-45.32119 l 5.27713,-23.90228 c 0.66817,-4.17837 -1.28938,-6.16862 -5.58754,-6.20838 -8.60564,0.35045 -17.10921,0.871 -23.28144,5.27712 -4.78149,13.8654 -1.79924,27.73078 -2.17293,41.59617 l 1.5521,26.07521 z"
         id="path318"
         sodipodi:nodetypes="cccccccc" />
      <path
         style="fill:#a02c5a;stroke:#ff5555;stroke-width:0;stroke-linecap:butt;stroke-linejoin:miter;stroke-miterlimit:4;stroke-dasharray:none;stroke-opacity:1"
         d="m 857.94944,721.4764 c -7.82245,-7.22264 -15.9896,-13.75588 -25.45438,-17.69388 -6.86822,-0.89258 -14.74391,-2.38964 -17.69388,-0.93126 -2.72217,1.05225 -5.30666,1.88257 -5.58754,7.76047 0.95649,8.62252 -0.40699,20.89071 5.89795,21.10851 l 7.45006,24.21269 35.38779,-34.45653"
         id="path314"
         sodipodi:nodetypes="ccccccc" />
      <path
         id="path306"
         style="fill:#50162d;stroke:#782121;stroke-width:0;stroke-linecap:butt;stroke-linejoin:miter;stroke-miterlimit:4;stroke-dasharray:none;stroke-opacity:1"
         d="m 718.47547,803.66391 1.75648,-44.46233 c -1.15601,-17.00852 0.88621,-37.59124 -13.14616,-40.20853 -11.42722,-2.82766 -13.89513,1.06416 -19.24608,2.79369 -6.21387,5.7945 -2.35734,11.58914 3.72517,17.38362 2.18597,1.7547 6.96231,2.64581 4.65615,5.89788 -1.03438,19.14233 -1.96118,38.23094 1.86246,54.94427 0.30392,1.92851 0.0625,4.18417 4.34591,3.72492 z" />
      <path
         id="path325"
         style="fill:#782144;stroke:#782121;stroke-width:0;stroke-linecap:butt;stroke-linejoin:miter;stroke-miterlimit:4;stroke-dasharray:none;stroke-opacity:1"
         d="m 825.49139,803.1336 -1.63394,-44.97969 -103.55823,-2.45632 c -0.085,-0.98834 -0.1503,-2.00073 -0.21406,-3.01478 l -1.86323,50.98111 z" />
      <path
         id="path337"
         style="fill:#50162d;stroke:#782121;stroke-width:0;stroke-linecap:butt;stroke-linejoin:miter;stroke-miterlimit:4;stroke-dasharray:none;stroke-opacity:1"
         d="m 847.99801,716.56361 c -3.83075,-0.0968 -8.06947,1.03017 -12.39891,2.42947 -7.64552,6.32591 -10.3395,13.75209 -10.55426,21.72927 l -5.58738,23.28149 -1.39894,-0.0307 1.54033,39.22827 18.4837,-0.0847 c 3.84307,1.77725 4.68903,-0.19197 5.27713,-2.48344 2.83815,-18.12553 3.47334,-35.36974 2.17296,-51.83985 0.0404,-4.92625 1.92655,-8.00693 5.27713,-9.62304 9.53725,-3.69572 8.0456,-10.78488 7.1396,-17.69387 -2.6978,-3.49558 -6.12063,-4.81613 -9.95136,-4.91291 z" />
      <path
         style="fill:#d35f8d;stroke:#782121;stroke-width:0;stroke-linecap:butt;stroke-linejoin:miter;stroke-miterlimit:4;stroke-dasharray:none;stroke-opacity:1"
         d="m 720.12334,741.34323 c 7.79228,-16.59551 23.46945,-26.33461 50.2879,-26.38562 18.38193,0.55257 31.58768,3.17561 37.56072,8.69173 8.17983,3.82441 11.94303,10.96128 17.07304,17.07306 -1.39667,8.37622 -29.62622,6.91372 -54.94418,6.5188 -22.10317,7.36659 -39.45469,6.5875 -49.97748,-5.89797 z"
         id="path302"
         sodipodi:nodetypes="cccccc" />
      <path
         style="fill:#c83771;stroke:#ff0000;stroke-width:0;stroke-linecap:butt;stroke-linejoin:miter;stroke-miterlimit:4;stroke-dasharray:none;stroke-opacity:1"
         d="m 720.12334,741.34323 c -0.82087,7.52248 -2.05517,15.35503 0.31041,20.48767 16.75222,5.58821 34.27612,3.4597 51.84,0.93125 27.50022,3.51187 34.20401,1.551 47.18371,1.24169 3.348,0.91483 6.31312,1.14048 5.58754,-5.27713 2.39612,-4.80337 0.71534,-11.6452 0,-18.00431 -35.80157,-2.2761 -70.77566,-2.06977 -104.92166,0.62083 z"
         id="path304"
         sodipodi:nodetypes="ccccccc" />
      <path
         style="opacity:0.180645;fill:none;stroke:#2ca02c;stroke-width:7.42884;stroke-linecap:butt;stroke-linejoin:miter;stroke-miterlimit:4;stroke-dasharray:none;stroke-opacity:1"
         d="m 769.16956,802.80622 v -40.35448 c -1.35549,-7.76048 -0.46507,-15.52096 0.62084,-23.28143 -3.2395,-9.84586 -1.25303,-17.07874 0.31042,-24.52313 l 0.31042,-80.39855"
         id="path1163"
         sodipodi:nodetypes="ccccc" />
      <path
         style="opacity:0.183871;fill:none;stroke:#16502d;stroke-width:7.42884;stroke-linecap:butt;stroke-linejoin:miter;stroke-miterlimit:4;stroke-dasharray:none;stroke-opacity:1"
         d="m 769.16956,802.80622 v -40.35448 c -1.35549,-7.76048 -0.46507,-15.52096 0.62084,-23.28143 -3.2395,-9.84586 -1.25303,-17.07874 0.31042,-24.52313 l 0.31042,-80.39855"
         id="path1165"
         sodipodi:nodetypes="ccccc" />
      <path
         style="opacity:0.180645;fill:none;stroke:#2ca02c;stroke-width:1.24237;stroke-linecap:butt;stroke-linejoin:miter;stroke-miterlimit:4;stroke-dasharray:none;stroke-opacity:1"
         d="m 775.41353,802.80622 v -40.35448 c -1.35549,-7.76048 -0.46507,-15.52096 0.62084,-23.28143 -3.2395,-9.84586 -1.25303,-17.07874 0.31042,-24.52313 l 0.31043,-80.39855"
         id="path1167"
         sodipodi:nodetypes="ccccc" />
      <path
         style="opacity:0.180645;fill:none;stroke:#c6e9af;stroke-width:1.24237;stroke-linecap:butt;stroke-linejoin:miter;stroke-miterlimit:4;stroke-dasharray:none;stroke-opacity:1"
         d="m 777.94898,802.80622 v -40.35448 c -1.3555,-7.76048 -0.46508,-15.52096 0.62083,-23.28143 -3.2395,-9.84586 -1.25303,-17.07874 0.31042,-24.52313 l 0.31043,-80.39855"
         id="path1169"
         sodipodi:nodetypes="ccccc" />
      <path
         style="opacity:0.351613;fill:#8dd35f;stroke:#16502d;stroke-width:7.40786;stroke-linecap:butt;stroke-linejoin:miter;stroke-miterlimit:4;stroke-dasharray:none;stroke-opacity:1"
         d="m 737.19639,802.80622 v -37.65758 c -3.10104,-8.23116 -1.44874,-16.46232 0,-24.69348 -2.92668,-9.3825 0.4417,-15.63521 5.65141,-20.97245 V 638.5945"
         id="path1171"
         sodipodi:nodetypes="ccccc" />
      <path
         style="opacity:0.351613;fill:none;stroke:#2ca02c;stroke-width:1.24237;stroke-linecap:butt;stroke-linejoin:miter;stroke-miterlimit:4;stroke-dasharray:none;stroke-opacity:1"
         d="m 744.02561,802.80622 v -37.87114 c -3.10104,-8.27783 -1.44874,-16.55568 0,-24.83352 -2.92668,-9.4357 0.4417,-15.72388 5.65142,-21.09139 v -81.34693"
         id="path1173"
         sodipodi:nodetypes="ccccc" />
      <path
         style="opacity:0.183871;fill:none;stroke:#e3dbdb;stroke-width:1.24237;stroke-linecap:butt;stroke-linejoin:miter;stroke-miterlimit:4;stroke-dasharray:none;stroke-opacity:1"
         d="m 746.6596,802.80622 v -37.87114 c -3.10103,-8.27783 -1.44874,-16.55568 0,-24.83352 -2.92667,-9.4357 0.4417,-15.72388 5.65141,-21.09139 v -81.34693"
         id="path1175"
         sodipodi:nodetypes="ccccc" />
      <path
         style="opacity:0.351613;fill:#8dd35f;stroke:#16502d;stroke-width:7.34457;stroke-linecap:butt;stroke-linejoin:miter;stroke-miterlimit:4;stroke-dasharray:none;stroke-opacity:1"
         d="m 806.42335,802.80622 v -37.0169 c 3.10103,-8.09112 1.44874,-16.18225 0,-24.27337 2.92667,-9.22287 -0.44171,-15.36921 -5.65142,-20.61564 v -79.51204"
         id="path1177"
         sodipodi:nodetypes="ccccc" />
      <path
         style="opacity:0.351613;fill:none;stroke:#2ca02c;stroke-width:1.24237;stroke-linecap:butt;stroke-linejoin:miter;stroke-miterlimit:4;stroke-dasharray:none;stroke-opacity:1"
         d="m 799.59413,802.80622 v -37.87114 c 3.10103,-8.27783 1.44873,-16.55568 0,-24.83352 2.92667,-9.4357 -0.44171,-15.72388 -5.65142,-21.09139 v -81.34693"
         id="path1179"
         sodipodi:nodetypes="ccccc" />
      <path
         style="opacity:0.183871;fill:none;stroke:#e3dbdb;stroke-width:1.24237;stroke-linecap:butt;stroke-linejoin:miter;stroke-miterlimit:4;stroke-dasharray:none;stroke-opacity:1"
         d="m 796.96014,802.80622 v -37.87114 c 3.10102,-8.27783 1.44874,-16.55568 0,-24.83352 2.92666,-9.4357 -0.44171,-15.72388 -5.65142,-21.09139 v -81.34693"
         id="path1181"
         sodipodi:nodetypes="ccccc" />
      <path
         style="opacity:0.287097;fill:none;stroke:#16502d;stroke-width:7.35276;stroke-linecap:butt;stroke-linejoin:miter;stroke-miterlimit:4;stroke-dasharray:none;stroke-opacity:1"
         d="m 718.96458,781.69772 h 99.95497"
         id="path1183" />
      <path
         style="opacity:0.287097;fill:none;stroke:#2ca02c;stroke-width:1.14095;stroke-linecap:butt;stroke-linejoin:miter;stroke-miterlimit:4;stroke-dasharray:none;stroke-opacity:1"
         d="m 718.96458,787.52924 h 99.95497"
         id="path1185" />
      <path
         style="opacity:0.287097;fill:none;stroke:#d5ffd5;stroke-width:1.14095;stroke-linecap:butt;stroke-linejoin:miter;stroke-miterlimit:4;stroke-dasharray:none;stroke-opacity:1"
         d="m 718.96458,790.06469 h 99.95497"
         id="path1187" />
      <path
         style="opacity:0.287097;fill:none;stroke:#16502d;stroke-width:7.34802;stroke-linecap:round;stroke-linejoin:miter;stroke-miterlimit:4;stroke-dasharray:none;stroke-opacity:1"
         d="m 722.75398,750.65581 h 99.82624"
         id="path1189" />
      <path
         style="opacity:0.287097;fill:none;stroke:#2ca02c;stroke-width:1.1719;stroke-linecap:round;stroke-linejoin:miter;stroke-miterlimit:4;stroke-dasharray:none;stroke-opacity:1"
         d="M 719.72205,756.48733 H 825.17314"
         id="path1191" />
      <path
         style="opacity:0.287097;fill:none;stroke:#d5ffd5;stroke-width:1.16503;stroke-linecap:round;stroke-linejoin:miter;stroke-miterlimit:4;stroke-dasharray:none;stroke-opacity:1"
         d="M 720.16639,759.02277 H 824.38395"
         id="path1193" />
    </g>
    <g
       id="g5228"
       transform="matrix(0.49067813,0,0,0.49067813,-215.87313,-330.60773)">
      <path
         style="fill:#008033;stroke:#000000;stroke-width:0;stroke-linecap:butt;stroke-linejoin:miter;stroke-miterlimit:4;stroke-dasharray:none;stroke-opacity:1"
         d="m 729.36968,863.88633 11.45283,30.23545 c -5.29502,10.84369 -16.61599,14.33575 -30.83647,16.9816 -24.07867,4.48004 -43.46681,2.67861 -64.68007,-5.52877 l -2.74868,-31.83887 23.36377,-19.01169 z"
         id="path5211"
         sodipodi:nodetypes="ccscccc" />
      <path
         style="fill:#00d455;stroke:#000000;stroke-width:0;stroke-linecap:butt;stroke-linejoin:miter;stroke-miterlimit:4;stroke-dasharray:none;stroke-opacity:1"
         d="m 641.87012,864.34443 -8.47508,29.77735 c 0.77868,5.41342 6.36714,8.42195 11.91093,11.45281 35.80274,8.83643 67.05266,9.44278 87.04146,-10.30753 2.04941,-1.18951 1.17758,-3.83964 0.91623,-6.18453 l -7.55888,-18.78262 -16.95017,-9.16225 -46.04035,-1.1453 z"
         id="path5209"
         sodipodi:nodetypes="ccccccccc" />
      <path
         style="fill:#5fd38d;stroke:#000000;stroke-width:0;stroke-linecap:butt;stroke-linejoin:miter;stroke-miterlimit:4;stroke-dasharray:none;stroke-opacity:1"
         d="m 641.87012,864.34443 c 5.99679,-9.36014 19.52306,-14.83409 44.43695,-14.43056 19.58572,0.007 34.46637,4.19678 43.06261,13.97246 -1.32575,9.3981 -15.396,14.73935 -41.4592,16.26299 -28.36447,-0.23874 -44.5465,-5.18433 -46.04036,-15.80489 z"
         id="path5205"
         sodipodi:nodetypes="ccccc" />
      <path
         style="fill:#00ffcc;stroke:#000000;stroke-width:0;stroke-linecap:butt;stroke-linejoin:miter;stroke-miterlimit:4;stroke-dasharray:none;stroke-opacity:1"
         d="m 654.23918,871.67424 c 18.9493,6.61201 40.07226,6.97478 63.90674,-0.4581 l -9.39131,-10.07846 -46.04035,-1.1453 z"
         id="path5213"
         sodipodi:nodetypes="ccccc" />
      <path
         style="fill:#16502d;stroke:#000000;stroke-width:0;stroke-linecap:butt;stroke-linejoin:miter;stroke-miterlimit:4;stroke-dasharray:none;stroke-opacity:1"
         d="m 646.90937,866.63501 c 6.64078,-7.0252 17.14872,-12.39305 40.77206,-12.14001 23.31282,0.72695 33.51496,5.55099 37.3362,12.36906 -1.52523,1.96092 -3.52402,3.60613 -6.87171,4.35208 -6.97935,-6.96619 -18.97283,-7.66471 -30.69357,-8.70416 -18.67069,0.0803 -28.5708,3.5926 -33.21317,9.16226 -3.59813,-1.96846 -6.17346,-3.68122 -7.32981,-5.03923 z"
         id="path5207"
         sodipodi:nodetypes="ccccccc" />
      <ellipse
         style="opacity:1;fill:#d5fff6;fill-opacity:1;fill-rule:evenodd;stroke:#000000;stroke-width:0;stroke-linecap:butt;stroke-linejoin:round;stroke-miterlimit:4;stroke-dasharray:none;stroke-opacity:1;paint-order:stroke markers fill"
         id="path5217"
         cx="441.25351"
         cy="1008.1799"
         rx="7.9505844"
         ry="1.2506834"
         transform="rotate(-14.232634)" />
      <ellipse
         style="opacity:1;fill:#d5fff6;fill-opacity:1;fill-rule:evenodd;stroke:#000000;stroke-width:0;stroke-linecap:butt;stroke-linejoin:round;stroke-miterlimit:4;stroke-dasharray:none;stroke-opacity:1;paint-order:stroke markers fill"
         id="path5219"
         cx="685.52753"
         cy="866.79382"
         rx="1.0527879"
         ry="0.80983686" />
    </g>
    <ellipse
       style="opacity:0.01;fill:#0f333c;fill-rule:evenodd;stroke:#999999;stroke-width:0;stroke-linejoin:round;paint-order:stroke markers fill"
       id="path881"
       cx="-113.50944"
       cy="-232.33257"
       rx="9.0701723"
       ry="7.7744346" />
    <ellipse
       style="opacity:0.01;fill:#0f333c;fill-rule:evenodd;stroke:#999999;stroke-width:0;stroke-linejoin:round;paint-order:stroke markers fill"
       id="path881-5"
       cx="296.33456"
       cy="262.10059"
       rx="9.0701723"
       ry="7.7744346" />
  </g>
</svg>
