<?xml version="1.0" encoding="UTF-8" standalone="no"?>
<svg
   xmlns:dc="http://purl.org/dc/elements/1.1/"
   xmlns:cc="http://creativecommons.org/ns#"
   xmlns:rdf="http://www.w3.org/1999/02/22-rdf-syntax-ns#"
   xmlns:svg="http://www.w3.org/2000/svg"
   xmlns="http://www.w3.org/2000/svg"
   xmlns:xlink="http://www.w3.org/1999/xlink"
   xmlns:sodipodi="http://sodipodi.sourceforge.net/DTD/sodipodi-0.dtd"
   xmlns:inkscape="http://www.inkscape.org/namespaces/inkscape"
   width="449.47015mm"
   height="623.42242mm"
   version="1.1"
   viewBox="0 0 449.47014 623.42243"
   id="svg156"
   sodipodi:docname="background.svg"
   inkscape:version="1.0.1 (3bc2e813f5, 2020-09-07)">
  <sodipodi:namedview
     pagecolor="#ffffff"
     bordercolor="#666666"
     borderopacity="1"
     objecttolerance="10"
     gridtolerance="10"
     guidetolerance="10"
     inkscape:pageopacity="0"
     inkscape:pageshadow="2"
     inkscape:window-width="1366"
     inkscape:window-height="746"
     id="namedview158"
     showgrid="false"
     inkscape:zoom="0.20419493"
     inkscape:cx="1082.7709"
     inkscape:cy="1077.4019"
     inkscape:window-x="-8"
     inkscape:window-y="-8"
     inkscape:window-maximized="1"
     inkscape:current-layer="svg156" />
  <defs
     id="defs12">
    <linearGradient
       inkscape:collect="always"
       id="linearGradient1638">
      <stop
         style="stop-color:#003380;stop-opacity:1;"
         offset="0"
         id="stop1634" />
      <stop
         style="stop-color:#003380;stop-opacity:0;"
         offset="1"
         id="stop1636" />
    </linearGradient>
    <linearGradient
       id="linearGradient36291"
       x1="3843.1001"
       x2="3843.1001"
       y1="-5278.3999"
       y2="-4676.5"
       gradientTransform="matrix(0.083696,0,0,0.083696,-504.84,630.65)"
       gradientUnits="userSpaceOnUse">
      <stop
         stop-color="#acf"
         offset="0"
         id="stop2" />
      <stop
         stop-color="#acf"
         stop-opacity="0"
         offset="1"
         id="stop4" />
    </linearGradient>
    <linearGradient
       id="linearGradient36033"
       x1="3849.7"
       x2="3763.7"
       y1="-4868.2998"
       y2="-4154"
       gradientTransform="matrix(0.083696,0,0,0.083696,-504.84,630.65)"
       gradientUnits="userSpaceOnUse">
      <stop
         stop-color="#80b3ff"
         offset="0"
         id="stop7" />
      <stop
         stop-color="#80b3ff"
         stop-opacity="0"
         offset="1"
         id="stop9" />
    </linearGradient>
    <linearGradient
       inkscape:collect="always"
       xlink:href="#linearGradient36289"
       id="linearGradient36291-0"
       x1="3843.073"
       y1="-5278.4375"
       x2="3843.073"
       y2="-4676.5103"
       gradientUnits="userSpaceOnUse"
       gradientTransform="matrix(0.11463892,0,0,0.11463892,-177.25194,620.29875)" />
    <linearGradient
       inkscape:collect="always"
       id="linearGradient36289">
      <stop
         style="stop-color:#aaccff;stop-opacity:1;"
         offset="0"
         id="stop36285" />
      <stop
         style="stop-color:#aaccff;stop-opacity:0;"
         offset="1"
         id="stop36287" />
    </linearGradient>
    <linearGradient
       inkscape:collect="always"
       xlink:href="#linearGradient36031"
       id="linearGradient36033-2"
       x1="3849.6875"
       y1="-4868.3335"
       x2="3763.698"
       y2="-4153.9585"
       gradientUnits="userSpaceOnUse"
       gradientTransform="matrix(0.11463892,0,0,0.11463892,-177.25194,620.29875)" />
    <linearGradient
       inkscape:collect="always"
       id="linearGradient36031">
      <stop
         style="stop-color:#80b3ff;stop-opacity:1;"
         offset="0"
         id="stop36027" />
      <stop
         style="stop-color:#80b3ff;stop-opacity:0;"
         offset="1"
         id="stop36029" />
    </linearGradient>
    <linearGradient
       inkscape:collect="always"
       xlink:href="#linearGradient1638"
       id="linearGradient1640"
       x1="541.6189"
       y1="410.74927"
       x2="541.6189"
       y2="50.533821"
       gradientUnits="userSpaceOnUse"
       gradientTransform="translate(-270.68331,197.69597)" />
  </defs>
  <metadata
     id="metadata14">
    <rdf:RDF>
      <cc:Work
         rdf:about="">
        <dc:format>image/svg+xml</dc:format>
        <dc:type
           rdf:resource="http://purl.org/dc/dcmitype/StillImage" />
        <dc:title></dc:title>
      </cc:Work>
    </rdf:RDF>
  </metadata>
  <rect
     style="opacity:0.9;fill:#afdde9;fill-rule:evenodd;stroke:#008080;stroke-width:0;stroke-linecap:round;stroke-linejoin:round;stroke-miterlimit:4;stroke-dasharray:none;stroke-opacity:0.52549;paint-order:stroke markers fill"
     id="rect1618"
     width="429.53748"
     height="448.86322"
     x="15.990727"
     y="171.9677" />
  <path
     style="fill:url(#linearGradient36291-0);fill-opacity:1;stroke:#80b3ff;stroke-width:0.0297189px;stroke-linecap:butt;stroke-linejoin:miter;stroke-opacity:1"
     d="m 349.76399,104.519 -24.50934,-53.558381 -2.53547,5.2252 -9.29662,-6.53151 -4.64834,-15.67562 c 0,0 -8.45147,-10.4504 -10.98694,-6.5315 -2.53543,3.91892 -14.36756,1.3063 -14.36756,1.3063 l -5.49347,-16.98193 -3.80315,-3.9188895 -3.38063,1.30627 h -2.95803 -4.64831 l -3.38059,-9.14408005 h -2.53544 l -2.95803,7.83781005 -3.38063,2.6125795 -3.80315,14.36933 -7.60634,5.22522 -6.76122,7.83781 -5.07087,9.14412 -4.64835,14.36931 h -11.40953 l -20.70615,23.51344 -32.53827,-6.53151 -30.00281,16.98192 -5.4935,19.594541 -2.11288,3.91888 -5.49346,10.45043 h -3.80316 l -2.53547,3.91892 -3.38059,9.14409 c -0.32685,13.39399 1.28884,3.0929 8.70035,13.06953 z"
     id="path36035"
     sodipodi:nodetypes="cccccsccccccccccccccccccccccccccc" />
  <rect
     style="opacity:0.9;fill:#00222b;fill-opacity:1;fill-rule:evenodd;stroke:#008080;stroke-width:0;stroke-linecap:round;stroke-linejoin:round;stroke-miterlimit:4;stroke-dasharray:none;stroke-opacity:0.52549;paint-order:stroke markers fill"
     id="rect1622"
     width="429.53748"
     height="448.86322"
     x="14.025487"
     y="174.55917" />
  <rect
     style="opacity:0.9;fill:url(#linearGradient1640);fill-opacity:1;fill-rule:evenodd;stroke:#008080;stroke-width:0;stroke-linecap:round;stroke-linejoin:round;stroke-miterlimit:4;stroke-dasharray:none;stroke-opacity:0.52549;paint-order:stroke markers fill"
     id="rect1632"
     width="429.53748"
     height="448.86322"
     x="15.990727"
     y="171.9677" />
  <path
     style="fill:url(#linearGradient36033-2);fill-opacity:1;stroke:#80b3ff;stroke-width:0.0303315px;stroke-linecap:butt;stroke-linejoin:miter;stroke-opacity:1"
     d="m 438.47849,130.44424 -43.98074,-31.089838 -4.54975,3.033158 -16.68236,-3.79145 -8.34116,-9.099461 c 0,0 -15.16578,-6.0663 -19.71549,-3.79144 -4.54975,2.27487 -25.78182,0.75829 -25.78182,0.75829 l -9.85777,-9.85776 -6.82458,-2.27486 -6.06632,0.75828 h -5.30802 -8.3412 l -6.06628,-5.30801 h -4.54975 l -5.30802,4.54973 -6.06632,1.51657 -6.82459,8.34118 -13.64921,3.03316 -12.1326,4.54973 -9.09946,5.30802 -8.3412,8.341181 h -20.47376 l -37.15616,13.64919 -58.388224,-3.79144 -53.83851,9.85774 -9.85776,11.37434 -3.79141,2.27486 -9.85777,6.06631 h -6.82462 l -4.5497201,2.27488 -6.06631997,5.30801 c -0.58657,7.775 -0.40863,15.4408 12.89091007,21.23208 z"
     id="path36025"
     sodipodi:nodetypes="cccccsccccccccccccccccccccccccccc" />
  <g
     id="g33898"
     style="opacity:1;stroke:#999999;stroke-opacity:1"
     transform="matrix(0.17319755,0,0,0.17915969,502.70844,942.64883)">
    <path
       style="fill:#d38d5f;stroke:#999999;stroke-width:0.144201px;stroke-linecap:butt;stroke-linejoin:miter;stroke-opacity:1"
       d="m -498.74999,-4545.1125 c -7.5767,-10.477 -5.2149,-16.1102 -7.6475,-24.2169 2.6496,8.4029 0.3802,15.5791 10.1967,25.4915 z"
       id="path33888"
       sodipodi:nodetypes="cccc" />
    <path
       style="fill:#d38d5f;stroke:#999999;stroke-width:0.144201px;stroke-linecap:butt;stroke-linejoin:miter;stroke-opacity:1"
       d="m -517.86869,-4574.1091 c 0.1746,4.1045 -4.6612,5.7478 8.7628,23.1017 10.7448,16.86 4.5965,9.3065 3.6643,13.861 l 6.6916,-4.7796 c -12.7221,-4.2756 -19.3698,-20.8983 -19.1187,-32.1831 z"
       id="path33890"
       sodipodi:nodetypes="ccccc" />
    <path
       style="fill:#d38d5f;stroke:#999999;stroke-width:0.144201px;stroke-linecap:butt;stroke-linejoin:miter;stroke-opacity:1"
       d="m -517.86869,-4557.6989 c 1.9137,5.6419 3.0993,9.5229 2.5491,22.1457 l 1.5933,-1.9118 c -1.6994,-12.8811 -2.443,-13.804 -4.1424,-20.2339 z"
       id="path33892"
       sodipodi:nodetypes="cccc" />
    <path
       style="fill:none;stroke:#999999;stroke-width:13;stroke-linecap:butt;stroke-linejoin:miter;stroke-miterlimit:4;stroke-dasharray:none;stroke-opacity:1"
       d="m -663.60708,-4540.9114 c 38.54189,-72.1351 83.54159,-136.3221 178.59369,-138.9062 107.3278,13.6778 142.3499,73.0225 167.0183,138.9062 z"
       id="path33894"
       sodipodi:nodetypes="cccc" />
    <path
       style="fill:none;stroke:#999999;stroke-width:8.75565;stroke-linecap:butt;stroke-linejoin:miter;stroke-miterlimit:4;stroke-dasharray:none;stroke-opacity:1"
       d="m -638.89579,-4582.7389 19.1938,35.5975 57.5815,-111.6465 57.5814,111.6465 51.1836,-121.3549 73.5763,124.591 27.1914,-43.6877 -20.7934,-40.4518 -9.597,-11.3263 -38.3875,97.0839 -68.778,-122.973 -57.5814,121.3549 -43.1861,-97.0839 -19.1939,24.2709 23.9923,67.9588 59.1809,-118.1188 63.9795,124.5911 41.5867,-110.0286 68.7779,111.6467"
       id="path33896" />
  </g>
  <g
     id="g33904"
     transform="matrix(0.07404812,0,0,0.07404812,43.675396,445.09381)"
     style="opacity:1;stroke:#999999">
    <path
       style="fill:#999999;fill-opacity:1;stroke:#999999;stroke-width:0.264583px;stroke-linecap:butt;stroke-linejoin:miter;stroke-opacity:1"
       d="m 3322.6682,-4426.3196 -3.3073,-585.3906 81.0286,-24.8047 -34.7265,41.3411 4.9609,540.7422 -13.2291,29.7656 z"
       id="path33900" />
    <path
       style="fill:none;stroke:#999999;stroke-width:9;stroke-linecap:butt;stroke-linejoin:miter;stroke-miterlimit:4;stroke-dasharray:none;stroke-opacity:1"
       d="m 3405.3505,-5137.3873 -3.3073,610.1953 -26.4583,104.1797 -34.7266,-3.3073 -4.9609,-52.9167 h 51.263 l 8.2682,-36.3802 -33.0729,-1.6536 -1.6537,-36.3802 41.3412,1.6536 -3.3073,-41.3411 -33.0729,3.3073 -3.3073,-36.3802 38.0338,1.6536 -1.6536,-41.3411 -39.6875,3.3072 v -31.4192 l 41.3411,-1.6537 -1.6536,-44.6484 -38.0339,4.9609 v -36.3802 l 41.3412,-1.6536 -1.6537,-39.6875 -41.3411,3.3073 1.6536,-31.4193 h 36.3803 l -1.6537,-44.6484 -36.3802,3.3073 v -26.4584 l 41.3411,-4.9609 v -41.3412 l -36.3802,1.6537 -3.3073,-24.8047 41.3412,-33.0729 -9.9219,-16.5365"
       id="path33902"
       sodipodi:nodetypes="ccccccccccccccccccccccccccccccccccc" />
  </g>
  <g
     id="g37028"
     transform="matrix(0.11463892,0,0,0.11463892,-175.43204,620.29875)"
     style="stroke:#999999">
    <circle
       style="fill:#999999;fill-opacity:1;fill-rule:evenodd;stroke:#999999;stroke-width:7.47621;stroke-linecap:round;stroke-linejoin:round;stroke-miterlimit:4;stroke-dasharray:none;stroke-opacity:1;paint-order:stroke markers fill"
       id="circle33906"
       cx="3649.9407"
       cy="-4694.0664"
       r="30.596909" />
    <path
       style="fill:#999999;fill-opacity:1;stroke:#999999;stroke-width:0.219787px;stroke-linecap:butt;stroke-linejoin:miter;stroke-opacity:1"
       d="m 3643.7687,-4723.1604 0.4857,-28.1686 -6.7993,-7.285 h 12.6273 v 36.9106 z"
       id="path33908" />
    <path
       style="fill:#999999;fill-opacity:1;stroke:#999999;stroke-width:0.219787px;stroke-linecap:butt;stroke-linejoin:miter;stroke-opacity:1"
       d="m 3657.7732,-4723.1604 -0.4857,-28.1686 6.7993,-7.285 h -12.6273 v 36.9106 z"
       id="path33910" />
    <path
       style="fill:#999999;fill-opacity:1;stroke:#999999;stroke-width:0.219787px;stroke-linecap:butt;stroke-linejoin:miter;stroke-opacity:1"
       d="m 3651.5394,-4972.7922 -11.656,699.3577 9.7133,-1.9427 z"
       id="path33912" />
    <path
       style="fill:#999999;fill-opacity:1;stroke:#999999;stroke-width:0.219787px;stroke-linecap:butt;stroke-linejoin:miter;stroke-opacity:1"
       d="m 3649.0226,-4972.7922 11.6559,699.3577 -9.7133,-1.9427 z"
       id="path33914" />
  </g>
  <rect
     style="fill:#999999;fill-opacity:1;fill-rule:evenodd;stroke:#999999;stroke-width:0.651951;stroke-linecap:round;stroke-linejoin:round;stroke-miterlimit:4;stroke-dasharray:none;stroke-opacity:0.866667;paint-order:stroke markers fill"
     id="rect33918"
     width="31.717855"
     height="12.160625"
     x="241.83212"
     y="118.40337" />
  <g
     id="g33944"
     transform="matrix(0.08073039,0,0,0.06499926,-78.275564,422.72302)"
     style="fill:#999999;fill-opacity:1;stroke:#999999;stroke-opacity:0.866667">
    <rect
       style="opacity:1;fill:#999999;fill-opacity:1;fill-rule:evenodd;stroke:#999999;stroke-width:8.99999;stroke-linecap:round;stroke-linejoin:round;stroke-miterlimit:4;stroke-dasharray:none;stroke-opacity:0.866667;paint-order:stroke markers fill"
       id="rect33920"
       width="187.08867"
       height="289.98743"
       x="3886.7671"
       y="-4784.7925" />
    <rect
       style="opacity:1;fill:#999999;fill-opacity:1;fill-rule:evenodd;stroke:#999999;stroke-width:8.99999;stroke-linecap:round;stroke-linejoin:round;stroke-miterlimit:4;stroke-dasharray:none;stroke-opacity:0.866667;paint-order:stroke markers fill"
       id="rect33922"
       width="79.512688"
       height="149.67093"
       x="3975.6343"
       y="-4822.2104" />
    <rect
       style="opacity:1;fill:#999999;fill-opacity:1;fill-rule:evenodd;stroke:#999999;stroke-width:8.99999;stroke-linecap:round;stroke-linejoin:round;stroke-miterlimit:4;stroke-dasharray:none;stroke-opacity:0.866667;paint-order:stroke markers fill"
       id="rect33924"
       width="74.835464"
       height="84.189903"
       x="3928.8621"
       y="-4803.5015" />
    <rect
       style="opacity:1;fill:#999999;fill-opacity:1;fill-rule:evenodd;stroke:#999999;stroke-width:8.99999;stroke-linecap:round;stroke-linejoin:round;stroke-miterlimit:4;stroke-dasharray:none;stroke-opacity:0.866667;paint-order:stroke markers fill"
       id="rect33926"
       width="233.86084"
       height="631.42426"
       x="4190.7861"
       y="-5126.2295" />
    <rect
       style="opacity:1;fill:#999999;fill-opacity:1;fill-rule:evenodd;stroke:#999999;stroke-width:8.99999;stroke-linecap:round;stroke-linejoin:round;stroke-miterlimit:4;stroke-dasharray:none;stroke-opacity:0.866667;paint-order:stroke markers fill"
       id="rect33928"
       width="159.02538"
       height="149.67093"
       x="4218.8496"
       y="-5201.0649" />
    <rect
       style="opacity:1;fill:#999999;fill-opacity:1;fill-rule:evenodd;stroke:#999999;stroke-width:8.99999;stroke-linecap:round;stroke-linejoin:round;stroke-miterlimit:4;stroke-dasharray:none;stroke-opacity:0.866667;paint-order:stroke markers fill"
       id="rect33930"
       width="949.47498"
       height="355.46848"
       x="4331.1025"
       y="-4850.2739" />
    <circle
       style="opacity:1;fill:#999999;fill-opacity:1;fill-rule:evenodd;stroke:#999999;stroke-width:8.99999;stroke-linecap:round;stroke-linejoin:round;stroke-miterlimit:4;stroke-dasharray:none;stroke-opacity:0.866667;paint-order:stroke markers fill"
       id="circle33932"
       cx="4728.666"
       cy="-4794.147"
       r="224.50639" />
    <circle
       style="opacity:1;fill:#999999;fill-opacity:1;fill-rule:evenodd;stroke:#999999;stroke-width:8.99999;stroke-linecap:round;stroke-linejoin:round;stroke-miterlimit:4;stroke-dasharray:none;stroke-opacity:0.866667;paint-order:stroke markers fill"
       id="circle33934"
       cx="4735.6821"
       cy="-4974.2197"
       r="86.528511" />
    <rect
       style="opacity:1;fill:#999999;fill-opacity:1;fill-rule:evenodd;stroke:#999999;stroke-width:8.99999;stroke-linecap:round;stroke-linejoin:round;stroke-miterlimit:4;stroke-dasharray:none;stroke-opacity:0.866667;paint-order:stroke markers fill"
       id="rect33936"
       width="299.34186"
       height="505.1394"
       x="5130.9067"
       y="-4999.9448" />
    <rect
       style="opacity:1;fill:#999999;fill-opacity:1;fill-rule:evenodd;stroke:#999999;stroke-width:8.99999;stroke-linecap:round;stroke-linejoin:round;stroke-miterlimit:4;stroke-dasharray:none;stroke-opacity:0.866667;paint-order:stroke markers fill"
       id="rect33938"
       width="463.04443"
       height="916.7345"
       x="5261.8691"
       y="-5411.54" />
    <rect
       style="opacity:1;fill:#999999;fill-opacity:1;fill-rule:evenodd;stroke:#999999;stroke-width:8.99999;stroke-linecap:round;stroke-linejoin:round;stroke-miterlimit:4;stroke-dasharray:none;stroke-opacity:0.866667;paint-order:stroke markers fill"
       id="rect33940"
       width="280.633"
       height="313.3735"
       x="5542.502"
       y="-4822.2104" />
    <rect
       style="opacity:1;fill:#999999;fill-opacity:1;fill-rule:evenodd;stroke:#999999;stroke-width:8.99999;stroke-linecap:round;stroke-linejoin:round;stroke-miterlimit:4;stroke-dasharray:none;stroke-opacity:0.866667;paint-order:stroke markers fill"
       id="rect33942"
       width="523.84827"
       height="210.47475"
       x="5612.6602"
       y="-4705.2803" />
  </g>
  <g
     id="g33968"
     transform="matrix(0.12211839,0,0,0.12211839,-110.50532,664.7005)"
     style="opacity:1;stroke:#999999">
    <rect
       style="opacity:0.8;fill:none;fill-opacity:1;fill-rule:evenodd;stroke:#999999;stroke-width:10;stroke-linecap:round;stroke-linejoin:round;stroke-miterlimit:4;stroke-dasharray:none;stroke-opacity:1;paint-order:stroke markers fill"
       id="rect33948"
       width="158.75"
       height="304.27084"
       x="3540.2026"
       y="-4820.3774" />
    <path
       style="fill:none;stroke:#999999;stroke-width:13;stroke-linecap:butt;stroke-linejoin:miter;stroke-miterlimit:4;stroke-dasharray:none;stroke-opacity:1"
       d="m 3541.8562,-4818.7239 155.4427,155.4427 v 142.2135 l -157.9231,-157.9231 v 81.8554 l 76.4811,76.481 83.0957,-83.0955 -157.9232,-157.9232 93.5367,-54.0036 64.5693,64.5695 -157.2792,157.2791"
       id="path33950" />
    <path
       style="fill:none;stroke:#999999;stroke-width:15;stroke-linecap:butt;stroke-linejoin:miter;stroke-miterlimit:4;stroke-dasharray:none;stroke-opacity:1"
       d="m 3538.5489,-4689.7395 129.8112,-129.8112 31.4193,31.4192 -158.75,158.75 119.0625,112.4479 v -305.0976 h -58.7044 v 302.6172 h -47.9557 l 144.694,-144.694 v -53.7435 l -101.2858,-101.2859 -54.9838,54.9838 v 162.0573 h 155.4427 v -100.8724 h -158.75 v -52.9167 h 160.4037 -1.6537 v 208.3594 h -157.0963 v 26.4583 l 159.5768,-159.5768"
       id="path33952"
       sodipodi:nodetypes="cccccccccccccccccccccccc" />
    <rect
       style="opacity:1;fill:#999999;fill-opacity:1;fill-rule:evenodd;stroke:#999999;stroke-width:8.93775;stroke-linecap:round;stroke-linejoin:round;stroke-miterlimit:4;stroke-dasharray:none;stroke-opacity:0.4;paint-order:stroke markers fill"
       id="rect33954"
       width="144.25067"
       height="33.788803"
       x="3553.074"
       y="-4857.9429" />
    <rect
       style="fill:#999999;fill-opacity:1;fill-rule:evenodd;stroke:#999999;stroke-width:7.99999;stroke-linecap:round;stroke-linejoin:round;stroke-miterlimit:4;stroke-dasharray:none;paint-order:stroke markers fill"
       id="rect33956"
       width="85.989586"
       height="95.911461"
       x="3432.7156"
       y="-4936.1328" />
    <rect
       style="fill:#999999;fill-opacity:1;fill-rule:evenodd;stroke:#999999;stroke-width:8.67403;stroke-linecap:round;stroke-linejoin:round;stroke-miterlimit:4;stroke-dasharray:none;paint-order:stroke markers fill"
       id="rect33958"
       width="37.35981"
       height="58.857208"
       x="3988.6777"
       y="-5015.1709" />
    <path
       style="fill:#999999;stroke:#999999;stroke-width:0.264583px;stroke-linecap:butt;stroke-linejoin:miter;stroke-opacity:1"
       d="m 3482.325,-4939.44 51.263,-11.5756 21.4974,13.2292 1.6536,28.112 -52.9166,11.5755 z"
       id="path33960" />
    <path
       style="fill:none;stroke:#999999;stroke-width:11;stroke-linecap:butt;stroke-linejoin:miter;stroke-miterlimit:4;stroke-dasharray:none;stroke-opacity:1"
       d="m 3548.4708,-4911.3281 446.4844,-76.0677 28.112,34.7266 -343.9584,115.7552 -165.3645,-3.3073 v -49.6094 l 482.8645,-87.6432 8.2683,14.8828 -472.9427,124.0235 36.3802,-67.7996 21.4974,59.5313 44.6484,-76.0677 36.3802,61.1849 31.4193,-71.1068 29.7656,57.8776 24.8047,-62.8385 31.4193,42.9948 24.8047,-54.5703 18.19,38.0338 36.3803,-49.6093 19.8437,33.0729 44.6484,-41.3412 16.5365,23.1511 34.7266,-33.0729 -31.4193,26.4583 v 23.151 l -51.263,19.8438 -8.2683,-23.1511 -59.5312,18.1901 6.6146,19.8438 -51.263,19.8437 -6.6146,-26.4583 -47.9558,14.8828 6.6146,19.8438 -47.9557,21.4974 v -21.4974 l -11.5755,8.2682 v -8.2682 l -23.1511,-9.9219 16.5365,-51.263 28.112,47.9557 26.4583,-54.5703 28.112,42.9948 21.4974,-51.263 29.7656,38.0338 41.3412,-52.9166 29.7656,28.1119 23.151,-34.7265 33.0729,21.4974 26.4584,-31.4193 3.3073,3.3073 -353.8802,61.1849 -42.9948,56.2239 -39.6875,-49.6093 -21.4974,16.5364 6.6146,47.9558 128.9843,-29.7657 -39.6875,-51.263"
       id="path33962"
       sodipodi:nodetypes="cccccccccccccccccccccccccccccccccccccccccccccccccccccccccc" />
    <rect
       style="fill:none;fill-opacity:1;fill-rule:evenodd;stroke:#999999;stroke-width:14.874;stroke-linecap:round;stroke-linejoin:round;stroke-miterlimit:4;stroke-dasharray:none;stroke-opacity:1;paint-order:stroke markers fill"
       id="rect33964"
       width="180.37338"
       height="309.91425"
       x="3528.498"
       y="-4817.4634" />
    <path
       style="fill:#999999;fill-opacity:1;stroke:#999999;stroke-width:0;stroke-linecap:butt;stroke-linejoin:miter;stroke-miterlimit:4;stroke-dasharray:none;stroke-opacity:1"
       d="m 3952.2135,-4941.0937 -276.1589,82.6823 -84.3359,18.1901 -74.4141,6.6146"
       id="path33966" />
  </g>
  <path
     style="fill:#26bb26;fill-opacity:1;stroke:#2ca02c;stroke-width:0.0303315px;stroke-linecap:butt;stroke-linejoin:miter;stroke-opacity:1"
     d="m 173.01738,147.4835 c 63.34942,-8.20288 59.35228,-41.21766 225.97003,-11.37433 l -3.03315,16.68236 z"
     id="path34042"
     sodipodi:nodetypes="cccc" />
  <path
     style="fill:#5bff5b;fill-opacity:1;stroke:#37c837;stroke-width:0.0303315px;stroke-linecap:butt;stroke-linejoin:miter;stroke-opacity:1"
     d="m 15.990736,171.96769 c 74.93068,15.18155 84.043054,47.3702 173.707054,47.64981 33.2646,0.10374 152.16301,-13.33922 182.45117,-20.51039 l -54.81883,-27.13942 z"
     id="path1616"
     sodipodi:nodetypes="csccc" />
  <path
     style="fill:#5bff5b;fill-opacity:1;stroke:#37c837;stroke-width:0.0303315px;stroke-linecap:butt;stroke-linejoin:miter;stroke-opacity:1"
     d="m 15.990736,172.52227 c 74.93068,-15.18155 84.043054,-47.3702 173.707054,-47.64982 33.2646,-0.10374 152.16301,13.33923 182.45117,20.5104 l -54.81883,27.13942 z"
     id="path34044"
     sodipodi:nodetypes="csccc" />
  <path
     style="opacity:1;fill:#82ff82;fill-opacity:1;stroke:#5fd35f;stroke-width:0.0303315px;stroke-linecap:butt;stroke-linejoin:miter;stroke-opacity:1"
     d="m 217.06237,172.34026 c 33.42233,-18.67213 98.36713,-21.25175 129.50993,-33.43606 52.70638,-20.6208 67.96812,-40.479036 101.58841,-6.77826 v 26.80958 c -0.44802,12.09243 -8.82793,13.60906 -17.69427,14.47715 z"
     id="path34256"
     sodipodi:nodetypes="cscccc" />
  <g
     id="g34274"
     transform="matrix(0.3619503,0,0,0.3619503,-1622.1953,170.98687)"
     inkscape:export-filename="C:\Users\Dell\Desktop\Dan\animations\stay3f8.png"
     inkscape:export-xdpi="74"
     inkscape:export-ydpi="74">
    <path
       style="fill:#784421;stroke:#784421;stroke-width:0.897362px;stroke-linecap:butt;stroke-linejoin:miter;stroke-opacity:1"
       d="m 5581.2326,-131.16371 c -5.4398,-62.63955 -0.7465,-122.2391 6.9403,-180.94065 l 4.4616,-0.49572 c -2.5464,64.40566 -4.8262,128.478 2.9748,179.94919 z"
       id="path34258"
       sodipodi:nodetypes="ccccc" />
    <path
       style="fill:#c87137;stroke:#c87137;stroke-width:0.897362px;stroke-linecap:butt;stroke-linejoin:miter;stroke-opacity:1"
       d="m 5585.1991,-242.70245 c 19.3976,-8.69683 22.8306,-36.26101 28.2562,-61.47026 h 4.4616 c -6.2503,28.47499 -14.5015,54.69905 -31.2309,71.38481 z"
       id="path34260"
       sodipodi:nodetypes="ccccc" />
    <path
       style="fill:#a05a2c;stroke:#a05a2c;stroke-width:1.06372px;stroke-linecap:butt;stroke-linejoin:miter;stroke-opacity:1"
       d="m 5584.2549,-242.8023 c -27.2299,3.80704 -37.6815,-21.52749 -39.8623,-61.22668 h -6.2944 c 6.5987,38.79733 17.7662,69.06672 44.059,71.10192 z"
       id="path34262"
       sodipodi:nodetypes="ccccc" />
    <path
       style="fill:#c87137;stroke:#c87137;stroke-width:0.897362px;stroke-linecap:butt;stroke-linejoin:miter;stroke-opacity:1"
       d="m 5584.455,-285.5829 c 3.9285,-2.99808 7.6023,-4.77942 5.701,20.07697 -1.416,45.50267 1.9779,135.20078 -5.9483,131.36785 l -3.4702,-1.9829 c -5.1183,-51.28777 0.8526,-100.01644 3.7175,-149.46192 z"
       id="path34264"
       sodipodi:nodetypes="ccccc" />
    <path
       style="fill:#8dd35f;stroke:#8dd35f;stroke-width:0.897362px;stroke-linecap:butt;stroke-linejoin:miter;stroke-opacity:1"
       d="m 5523.2327,-341.35227 c -17.8687,17.20335 -14.1867,35.67436 12.8888,55.52148 27.3364,17.8656 43.3458,10.46358 53.5383,-9.91452 8.521,4.55306 16.53,20.36776 26.2741,-1.98294 11.756,8.27807 19.5356,26.64963 47.5897,-6.44446 9.6213,-19.87018 -2.4583,-22.68966 -10.4102,-28.7522 16.452,4.05881 23.6924,-1.09406 24.2907,-12.88892 5.164,-13.64102 -6.7697,-17.0232 -13.8805,-23.2992 9.2041,-4.95728 10.9488,-9.91456 2.9747,-14.87183 l -7.4364,-1.98294 c 8.3044,-7.66524 1.8681,-18.60606 -0.9917,-28.75219 -8.2352,-10.40471 -18.9133,-6.15377 -29.743,-0.99147 0.4697,-13.77702 1.3936,-27.75598 -21.3166,-31.23085 -27.1743,-0.0634 -30.1806,14.08979 -35.692,26.76932 -6.17,-9.15371 -10.9749,-4.65356 -15.8636,-0.99147 l 0.4956,7.43593 c -10.4944,-0.86872 -16.2682,2.19627 -18.8377,7.93165 -3.6592,7.137 -4.6055,13.82183 7.4364,18.34193 -18.4418,0.3841 -24.1462,11.18976 -28.2568,23.29919 -0.1662,7.35328 -5.1675,14.22292 6.9402,22.80349 z"
       id="path34266"
       sodipodi:nodetypes="cccccccccccccccccccc" />
    <path
       style="fill:#5aa02c;stroke:#5aa02c;stroke-width:0.897362px;stroke-linecap:butt;stroke-linejoin:miter;stroke-opacity:1"
       d="m 5516.3549,-363.35021 c 5.7562,6.66393 11.1197,13.67927 23.2366,7.62182 0.8872,7.54026 4.3514,12.50354 18.3421,6.94018 1.2678,12.10855 11.5061,8.83915 21.8121,5.45303 -7.745,3.44628 -11.8557,16.88672 -24.2907,7.4359 -12.0761,6.96674 -18.6297,2.88884 -22.8038,-5.94875 -3.9936,3.27996 -7.1797,3.63706 -9.8519,0.31 -11.5847,-5.95207 -8.1646,-16.56957 -6.4444,-21.81202 z"
       id="path34268"
       sodipodi:nodetypes="cccccccc" />
    <path
       style="fill:#5aa02c;stroke:#5aa02c;stroke-width:0.839511px;stroke-linecap:butt;stroke-linejoin:miter;stroke-opacity:1"
       d="m 5665.3578,-384.29089 c -7.0532,4.25684 -14.5517,11.275 -23.5711,2.37192 -2.9768,6.44898 -7.4974,9.85832 -18.3268,0.85099 -4.6408,10.40159 -12.7983,4.52325 -20.9822,-1.47854 5.8888,5.31228 5.645,18.45883 19.4471,13.66117 8.7188,9.6999 15.7313,7.97448 22.0075,1.3253 2.6003,4.0759 5.6195,4.61951 8.9616,2.43555 15.6937,-4.86631 26.692,-13.79283 12.4639,-19.16639 z"
       id="path34270"
       sodipodi:nodetypes="cccccccc" />
    <path
       style="fill:#5aa02c;stroke:#5aa02c;stroke-width:0.897362px;stroke-linecap:butt;stroke-linejoin:miter;stroke-opacity:1"
       d="m 5513.3184,-326.35882 c 15.2052,25.31531 32.8864,29.68885 52.0517,25.96378 10.2949,0.15059 18.4561,-6.10086 24.7859,-17.8462 6.4834,5.8514 9.8566,19.47882 26.2741,0.49571 9.4829,11.1723 11.894,28.67317 46.3507,14.8718 -13.5654,15.24525 -26.6567,32.79937 -45.36,6.94022 -6.3474,13.53462 -14.8234,17.27648 -27.761,0.49575 -12.5697,27.80244 -33.2168,27.33501 -58.9906,8.92308 -25.6084,-25.53939 -20.2225,-30.04812 -17.3508,-39.84414 z"
       id="path34272"
       sodipodi:nodetypes="ccccccccc" />
  </g>
  <path
     style="opacity:1;fill:#82ff82;fill-opacity:1;stroke:#5fd35f;stroke-width:0.0303315px;stroke-linecap:butt;stroke-linejoin:miter;stroke-opacity:1"
     d="m 217.06237,171.16727 c 33.42233,18.67214 98.36713,21.25176 129.50993,33.43607 52.70638,20.6208 67.96812,40.47903 101.58841,6.77825 v -26.80957 c -0.44802,-12.09243 -8.82793,-13.60907 -17.69427,-14.47715 z"
     id="path1614"
     sodipodi:nodetypes="cscccc" />
  <rect
     style="opacity:0.9;fill:#82ff82;fill-opacity:1;fill-rule:evenodd;stroke:#008080;stroke-width:0;stroke-linecap:round;stroke-linejoin:round;stroke-miterlimit:4;stroke-dasharray:none;stroke-opacity:0.52549;paint-order:stroke markers fill"
     id="rect1620"
     width="40.313934"
     height="43.97884"
     x="409.15622"
     y="149.136" />
  <circle
     style="opacity:1;fill:#ffffff;fill-opacity:1;fill-rule:evenodd;stroke:#008080;stroke-width:0;stroke-linecap:round;stroke-linejoin:round;stroke-miterlimit:4;stroke-dasharray:none;stroke-opacity:0.52549;paint-order:stroke markers fill"
     id="path1654"
     cx="315.93356"
     cy="233.55725"
     r="0.87634003" />
  <circle
     style="opacity:1;fill:#ffffff;fill-opacity:1;fill-rule:evenodd;stroke:#008080;stroke-width:0;stroke-linecap:round;stroke-linejoin:round;stroke-miterlimit:4;stroke-dasharray:none;stroke-opacity:0.52549;paint-order:stroke markers fill"
     id="circle1656"
     cx="322.02182"
     cy="246.37949"
     r="0.87634003" />
  <circle
     style="opacity:1;fill:#ffffff;fill-opacity:1;fill-rule:evenodd;stroke:#008080;stroke-width:0;stroke-linecap:round;stroke-linejoin:round;stroke-miterlimit:4;stroke-dasharray:none;stroke-opacity:0.52549;paint-order:stroke markers fill"
     id="circle1658"
     cx="331.89218"
     cy="240.56798"
     r="0.87634003" />
  <circle
     style="opacity:1;fill:#ffffff;fill-opacity:1;fill-rule:evenodd;stroke:#008080;stroke-width:0;stroke-linecap:round;stroke-linejoin:round;stroke-miterlimit:4;stroke-dasharray:none;stroke-opacity:0.52549;paint-order:stroke markers fill"
     id="circle1660"
     cx="359.47385"
     cy="249.51587"
     r="0.87634003" />
  <circle
     style="opacity:1;fill:#ffffff;fill-opacity:1;fill-rule:evenodd;stroke:#008080;stroke-width:0;stroke-linecap:round;stroke-linejoin:round;stroke-miterlimit:4;stroke-dasharray:none;stroke-opacity:0.52549;paint-order:stroke markers fill"
     id="circle1662"
     cx="359.47385"
     cy="249.51587"
     r="0.87634003" />
  <circle
     style="opacity:1;fill:#ffffff;fill-opacity:1;fill-rule:evenodd;stroke:#008080;stroke-width:0;stroke-linecap:round;stroke-linejoin:round;stroke-miterlimit:4;stroke-dasharray:none;stroke-opacity:0.52549;paint-order:stroke markers fill"
     id="circle1664"
     cx="350.71042"
     cy="271.47049"
     r="0.87634003" />
  <circle
     style="opacity:1;fill:#ffffff;fill-opacity:1;fill-rule:evenodd;stroke:#008080;stroke-width:0;stroke-linecap:round;stroke-linejoin:round;stroke-miterlimit:4;stroke-dasharray:none;stroke-opacity:0.52549;paint-order:stroke markers fill"
     id="circle1666"
     cx="385.94852"
     cy="256.24985"
     r="0.87634003" />
  <circle
     style="opacity:1;fill:#ffffff;fill-opacity:1;fill-rule:evenodd;stroke:#008080;stroke-width:0;stroke-linecap:round;stroke-linejoin:round;stroke-miterlimit:4;stroke-dasharray:none;stroke-opacity:0.52549;paint-order:stroke markers fill"
     id="circle1668"
     cx="394.06619"
     cy="247.2097"
     r="0.87634003" />
  <circle
     style="opacity:1;fill:#ffffff;fill-opacity:1;fill-rule:evenodd;stroke:#008080;stroke-width:0;stroke-linecap:round;stroke-linejoin:round;stroke-miterlimit:4;stroke-dasharray:none;stroke-opacity:0.52549;paint-order:stroke markers fill"
     id="circle1670"
     cx="403.84433"
     cy="273.59216"
     r="0.87634003" />
  <circle
     style="opacity:1;fill:#ffffff;fill-opacity:1;fill-rule:evenodd;stroke:#008080;stroke-width:0;stroke-linecap:round;stroke-linejoin:round;stroke-miterlimit:4;stroke-dasharray:none;stroke-opacity:0.52549;paint-order:stroke markers fill"
     id="circle1672"
     cx="365.46988"
     cy="241.58269"
     r="0.87634003" />
  <circle
     style="opacity:1;fill:#ffffff;fill-opacity:1;fill-rule:evenodd;stroke:#008080;stroke-width:0;stroke-linecap:round;stroke-linejoin:round;stroke-miterlimit:4;stroke-dasharray:none;stroke-opacity:0.52549;paint-order:stroke markers fill"
     id="circle1674"
     cx="133.55145"
     cy="-302.50049"
     r="1.3221004"
     transform="scale(1,-1)" />
  <circle
     style="opacity:1;fill:#ffffff;fill-opacity:1;fill-rule:evenodd;stroke:#008080;stroke-width:0;stroke-linecap:round;stroke-linejoin:round;stroke-miterlimit:4;stroke-dasharray:none;stroke-opacity:0.52549;paint-order:stroke markers fill"
     id="circle1676"
     cx="142.73651"
     cy="-283.15607"
     r="1.3221004"
     transform="scale(1,-1)" />
  <circle
     style="opacity:1;fill:#ffffff;fill-opacity:1;fill-rule:evenodd;stroke:#008080;stroke-width:0;stroke-linecap:round;stroke-linejoin:round;stroke-miterlimit:4;stroke-dasharray:none;stroke-opacity:0.52549;paint-order:stroke markers fill"
     id="circle1678"
     cx="157.62753"
     cy="-291.92368"
     r="1.3221004"
     transform="scale(1,-1)" />
  <circle
     style="opacity:1;fill:#ffffff;fill-opacity:1;fill-rule:evenodd;stroke:#008080;stroke-width:0;stroke-linecap:round;stroke-linejoin:round;stroke-miterlimit:4;stroke-dasharray:none;stroke-opacity:0.52549;paint-order:stroke markers fill"
     id="circle1680"
     cx="199.23898"
     cy="-278.42435"
     r="1.3221004"
     transform="scale(1,-1)" />
  <circle
     style="opacity:1;fill:#ffffff;fill-opacity:1;fill-rule:evenodd;stroke:#008080;stroke-width:0;stroke-linecap:round;stroke-linejoin:round;stroke-miterlimit:4;stroke-dasharray:none;stroke-opacity:0.52549;paint-order:stroke markers fill"
     id="circle1682"
     cx="199.23898"
     cy="-278.42435"
     r="1.3221004"
     transform="scale(1,-1)" />
  <circle
     style="opacity:1;fill:#ffffff;fill-opacity:1;fill-rule:evenodd;stroke:#008080;stroke-width:0;stroke-linecap:round;stroke-linejoin:round;stroke-miterlimit:4;stroke-dasharray:none;stroke-opacity:0.52549;paint-order:stroke markers fill"
     id="circle1684"
     cx="186.01794"
     cy="-245.30226"
     r="1.3221004"
     transform="scale(1,-1)" />
  <circle
     style="opacity:1;fill:#ffffff;fill-opacity:1;fill-rule:evenodd;stroke:#008080;stroke-width:0;stroke-linecap:round;stroke-linejoin:round;stroke-miterlimit:4;stroke-dasharray:none;stroke-opacity:0.52549;paint-order:stroke markers fill"
     id="circle1686"
     cx="239.18021"
     cy="-268.26505"
     r="1.3221004"
     transform="scale(1,-1)" />
  <circle
     style="opacity:1;fill:#ffffff;fill-opacity:1;fill-rule:evenodd;stroke:#008080;stroke-width:0;stroke-linecap:round;stroke-linejoin:round;stroke-miterlimit:4;stroke-dasharray:none;stroke-opacity:0.52549;paint-order:stroke markers fill"
     id="circle1688"
     cx="251.42703"
     cy="-281.90356"
     r="1.3221004"
     transform="scale(1,-1)" />
  <circle
     style="opacity:1;fill:#ffffff;fill-opacity:1;fill-rule:evenodd;stroke:#008080;stroke-width:0;stroke-linecap:round;stroke-linejoin:round;stroke-miterlimit:4;stroke-dasharray:none;stroke-opacity:0.52549;paint-order:stroke markers fill"
     id="circle1690"
     cx="266.17892"
     cy="-242.10138"
     r="1.3221004"
     transform="scale(1,-1)" />
  <circle
     style="opacity:1;fill:#ffffff;fill-opacity:1;fill-rule:evenodd;stroke:#008080;stroke-width:0;stroke-linecap:round;stroke-linejoin:round;stroke-miterlimit:4;stroke-dasharray:none;stroke-opacity:0.52549;paint-order:stroke markers fill"
     id="circle1692"
     cx="208.28494"
     cy="-290.39282"
     r="1.3221004"
     transform="scale(1,-1)" />
  <circle
     style="opacity:1;fill:#ffffff;fill-opacity:1;fill-rule:evenodd;stroke:#008080;stroke-width:0;stroke-linecap:round;stroke-linejoin:round;stroke-miterlimit:4;stroke-dasharray:none;stroke-opacity:0.52549;paint-order:stroke markers fill"
     id="circle1694"
     cx="32.661106"
     cy="-307.50613"
     r="1.4993981"
     transform="scale(1,-1)" />
  <circle
     style="opacity:1;fill:#ffffff;fill-opacity:1;fill-rule:evenodd;stroke:#008080;stroke-width:0;stroke-linecap:round;stroke-linejoin:round;stroke-miterlimit:4;stroke-dasharray:none;stroke-opacity:0.52549;paint-order:stroke markers fill"
     id="circle1696"
     cx="43.077915"
     cy="-285.5676"
     r="1.4993981"
     transform="scale(1,-1)" />
  <circle
     style="opacity:1;fill:#ffffff;fill-opacity:1;fill-rule:evenodd;stroke:#008080;stroke-width:0;stroke-linecap:round;stroke-linejoin:round;stroke-miterlimit:4;stroke-dasharray:none;stroke-opacity:0.52549;paint-order:stroke markers fill"
     id="circle1698"
     cx="59.965855"
     cy="-295.51096"
     r="1.4993981"
     transform="scale(1,-1)" />
  <circle
     style="opacity:1;fill:#ffffff;fill-opacity:1;fill-rule:evenodd;stroke:#008080;stroke-width:0;stroke-linecap:round;stroke-linejoin:round;stroke-miterlimit:4;stroke-dasharray:none;stroke-opacity:0.52549;paint-order:stroke markers fill"
     id="circle1700"
     cx="107.15754"
     cy="-280.20132"
     r="1.4993981"
     transform="scale(1,-1)" />
  <circle
     style="opacity:1;fill:#ffffff;fill-opacity:1;fill-rule:evenodd;stroke:#008080;stroke-width:0;stroke-linecap:round;stroke-linejoin:round;stroke-miterlimit:4;stroke-dasharray:none;stroke-opacity:0.52549;paint-order:stroke markers fill"
     id="circle1702"
     cx="107.15754"
     cy="-280.20132"
     r="1.4993981"
     transform="scale(1,-1)" />
  <circle
     style="opacity:1;fill:#ffffff;fill-opacity:1;fill-rule:evenodd;stroke:#008080;stroke-width:0;stroke-linecap:round;stroke-linejoin:round;stroke-miterlimit:4;stroke-dasharray:none;stroke-opacity:0.52549;paint-order:stroke markers fill"
     id="circle1704"
     cx="92.163521"
     cy="-242.63747"
     r="1.4993981"
     transform="scale(1,-1)" />
  <circle
     style="opacity:1;fill:#ffffff;fill-opacity:1;fill-rule:evenodd;stroke:#008080;stroke-width:0;stroke-linecap:round;stroke-linejoin:round;stroke-miterlimit:4;stroke-dasharray:none;stroke-opacity:0.52549;paint-order:stroke markers fill"
     id="circle1706"
     cx="152.45499"
     cy="-268.67963"
     r="1.4993981"
     transform="scale(1,-1)" />
  <circle
     style="opacity:1;fill:#ffffff;fill-opacity:1;fill-rule:evenodd;stroke:#008080;stroke-width:0;stroke-linecap:round;stroke-linejoin:round;stroke-miterlimit:4;stroke-dasharray:none;stroke-opacity:0.52549;paint-order:stroke markers fill"
     id="circle1708"
     cx="166.34415"
     cy="-284.14713"
     r="1.4993981"
     transform="scale(1,-1)" />
  <circle
     style="opacity:1;fill:#ffffff;fill-opacity:1;fill-rule:evenodd;stroke:#008080;stroke-width:0;stroke-linecap:round;stroke-linejoin:round;stroke-miterlimit:4;stroke-dasharray:none;stroke-opacity:0.52549;paint-order:stroke markers fill"
     id="circle1710"
     cx="183.07431"
     cy="-239.00734"
     r="1.4993981"
     transform="scale(1,-1)" />
  <circle
     style="opacity:1;fill:#ffffff;fill-opacity:1;fill-rule:evenodd;stroke:#008080;stroke-width:0;stroke-linecap:round;stroke-linejoin:round;stroke-miterlimit:4;stroke-dasharray:none;stroke-opacity:0.52549;paint-order:stroke markers fill"
     id="circle1712"
     cx="117.41657"
     cy="-293.77481"
     r="1.4993981"
     transform="scale(1,-1)" />
  <circle
     style="opacity:1;fill:#ffffff;fill-opacity:1;fill-rule:evenodd;stroke:#008080;stroke-width:0;stroke-linecap:round;stroke-linejoin:round;stroke-miterlimit:4;stroke-dasharray:none;stroke-opacity:0.52549;paint-order:stroke markers fill"
     id="circle1714"
     cx="331.89218"
     cy="240.56798"
     r="0.87634003" />
  <circle
     style="opacity:1;fill:#ffffff;fill-opacity:1;fill-rule:evenodd;stroke:#008080;stroke-width:0;stroke-linecap:round;stroke-linejoin:round;stroke-miterlimit:4;stroke-dasharray:none;stroke-opacity:0.52549;paint-order:stroke markers fill"
     id="circle1716"
     cx="359.47385"
     cy="249.51587"
     r="0.87634003" />
  <circle
     style="opacity:1;fill:#ffffff;fill-opacity:1;fill-rule:evenodd;stroke:#008080;stroke-width:0;stroke-linecap:round;stroke-linejoin:round;stroke-miterlimit:4;stroke-dasharray:none;stroke-opacity:0.52549;paint-order:stroke markers fill"
     id="circle1718"
     cx="359.47385"
     cy="249.51587"
     r="0.87634003" />
  <circle
     style="opacity:1;fill:#ffffff;fill-opacity:1;fill-rule:evenodd;stroke:#008080;stroke-width:0;stroke-linecap:round;stroke-linejoin:round;stroke-miterlimit:4;stroke-dasharray:none;stroke-opacity:0.52549;paint-order:stroke markers fill"
     id="circle1720"
     cx="350.71042"
     cy="271.47049"
     r="0.87634003" />
  <circle
     style="opacity:1;fill:#ffffff;fill-opacity:1;fill-rule:evenodd;stroke:#008080;stroke-width:0;stroke-linecap:round;stroke-linejoin:round;stroke-miterlimit:4;stroke-dasharray:none;stroke-opacity:0.52549;paint-order:stroke markers fill"
     id="circle1722"
     cx="385.94852"
     cy="256.24985"
     r="0.87634003" />
  <circle
     style="opacity:1;fill:#ffffff;fill-opacity:1;fill-rule:evenodd;stroke:#008080;stroke-width:0;stroke-linecap:round;stroke-linejoin:round;stroke-miterlimit:4;stroke-dasharray:none;stroke-opacity:0.52549;paint-order:stroke markers fill"
     id="circle1724"
     cx="394.06619"
     cy="247.2097"
     r="0.87634003" />
  <circle
     style="opacity:1;fill:#ffffff;fill-opacity:1;fill-rule:evenodd;stroke:#008080;stroke-width:0;stroke-linecap:round;stroke-linejoin:round;stroke-miterlimit:4;stroke-dasharray:none;stroke-opacity:0.52549;paint-order:stroke markers fill"
     id="circle1726"
     cx="403.84433"
     cy="273.59216"
     r="0.87634003" />
  <circle
     style="opacity:1;fill:#ffffff;fill-opacity:1;fill-rule:evenodd;stroke:#008080;stroke-width:0;stroke-linecap:round;stroke-linejoin:round;stroke-miterlimit:4;stroke-dasharray:none;stroke-opacity:0.52549;paint-order:stroke markers fill"
     id="circle1728"
     cx="365.46988"
     cy="241.58269"
     r="0.87634003" />
  <circle
     style="opacity:1;fill:#ffffff;fill-opacity:1;fill-rule:evenodd;stroke:#008080;stroke-width:0;stroke-linecap:round;stroke-linejoin:round;stroke-miterlimit:4;stroke-dasharray:none;stroke-opacity:0.52549;paint-order:stroke markers fill"
     id="circle1730"
     cx="39.636417"
     cy="-264.86429"
     r="0.69092017"
     transform="scale(1,-1)" />
  <circle
     style="opacity:1;fill:#ffffff;fill-opacity:1;fill-rule:evenodd;stroke:#008080;stroke-width:0;stroke-linecap:round;stroke-linejoin:round;stroke-miterlimit:4;stroke-dasharray:none;stroke-opacity:0.52549;paint-order:stroke markers fill"
     id="circle1732"
     cx="47.418278"
     cy="-269.4462"
     r="0.69092017"
     transform="scale(1,-1)" />
  <circle
     style="opacity:1;fill:#ffffff;fill-opacity:1;fill-rule:evenodd;stroke:#008080;stroke-width:0;stroke-linecap:round;stroke-linejoin:round;stroke-miterlimit:4;stroke-dasharray:none;stroke-opacity:0.52549;paint-order:stroke markers fill"
     id="circle1734"
     cx="69.164009"
     cy="-262.39154"
     r="0.69092017"
     transform="scale(1,-1)" />
  <circle
     style="opacity:1;fill:#ffffff;fill-opacity:1;fill-rule:evenodd;stroke:#008080;stroke-width:0;stroke-linecap:round;stroke-linejoin:round;stroke-miterlimit:4;stroke-dasharray:none;stroke-opacity:0.52549;paint-order:stroke markers fill"
     id="circle1736"
     cx="69.164009"
     cy="-262.39154"
     r="0.69092017"
     transform="scale(1,-1)" />
  <circle
     style="opacity:1;fill:#ffffff;fill-opacity:1;fill-rule:evenodd;stroke:#008080;stroke-width:0;stroke-linecap:round;stroke-linejoin:round;stroke-miterlimit:4;stroke-dasharray:none;stroke-opacity:0.52549;paint-order:stroke markers fill"
     id="circle1738"
     cx="62.254795"
     cy="-245.08217"
     r="0.69092017"
     transform="scale(1,-1)" />
  <circle
     style="opacity:1;fill:#ffffff;fill-opacity:1;fill-rule:evenodd;stroke:#008080;stroke-width:0;stroke-linecap:round;stroke-linejoin:round;stroke-miterlimit:4;stroke-dasharray:none;stroke-opacity:0.52549;paint-order:stroke markers fill"
     id="circle1740"
     cx="90.036934"
     cy="-257.08237"
     r="0.69092017"
     transform="scale(1,-1)" />
  <circle
     style="opacity:1;fill:#ffffff;fill-opacity:1;fill-rule:evenodd;stroke:#008080;stroke-width:0;stroke-linecap:round;stroke-linejoin:round;stroke-miterlimit:4;stroke-dasharray:none;stroke-opacity:0.52549;paint-order:stroke markers fill"
     id="circle1742"
     cx="96.436989"
     cy="-264.20975"
     r="0.69092017"
     transform="scale(1,-1)" />
  <circle
     style="opacity:1;fill:#ffffff;fill-opacity:1;fill-rule:evenodd;stroke:#008080;stroke-width:0;stroke-linecap:round;stroke-linejoin:round;stroke-miterlimit:4;stroke-dasharray:none;stroke-opacity:0.52549;paint-order:stroke markers fill"
     id="circle1744"
     cx="104.14616"
     cy="-243.40941"
     r="0.69092017"
     transform="scale(1,-1)" />
  <circle
     style="opacity:1;fill:#ffffff;fill-opacity:1;fill-rule:evenodd;stroke:#008080;stroke-width:0;stroke-linecap:round;stroke-linejoin:round;stroke-miterlimit:4;stroke-dasharray:none;stroke-opacity:0.52549;paint-order:stroke markers fill"
     id="circle1746"
     cx="73.891335"
     cy="-268.64618"
     r="0.69092017"
     transform="scale(1,-1)" />
  <circle
     style="opacity:1;fill:#ffffff;fill-opacity:1;fill-rule:evenodd;stroke:#008080;stroke-width:0;stroke-linecap:round;stroke-linejoin:round;stroke-miterlimit:4;stroke-dasharray:none;stroke-opacity:0.52549;paint-order:stroke markers fill"
     id="circle1748"
     cx="47.418278"
     cy="-269.4462"
     r="0.69092017"
     transform="scale(1,-1)" />
  <circle
     style="opacity:1;fill:#ffffff;fill-opacity:1;fill-rule:evenodd;stroke:#008080;stroke-width:0;stroke-linecap:round;stroke-linejoin:round;stroke-miterlimit:4;stroke-dasharray:none;stroke-opacity:0.52549;paint-order:stroke markers fill"
     id="circle1750"
     cx="69.164009"
     cy="-262.39154"
     r="0.69092017"
     transform="scale(1,-1)" />
  <circle
     style="opacity:1;fill:#ffffff;fill-opacity:1;fill-rule:evenodd;stroke:#008080;stroke-width:0;stroke-linecap:round;stroke-linejoin:round;stroke-miterlimit:4;stroke-dasharray:none;stroke-opacity:0.52549;paint-order:stroke markers fill"
     id="circle1752"
     cx="69.164009"
     cy="-262.39154"
     r="0.69092017"
     transform="scale(1,-1)" />
  <circle
     style="opacity:1;fill:#ffffff;fill-opacity:1;fill-rule:evenodd;stroke:#008080;stroke-width:0;stroke-linecap:round;stroke-linejoin:round;stroke-miterlimit:4;stroke-dasharray:none;stroke-opacity:0.52549;paint-order:stroke markers fill"
     id="circle1754"
     cx="62.254795"
     cy="-245.08217"
     r="0.69092017"
     transform="scale(1,-1)" />
  <circle
     style="opacity:1;fill:#ffffff;fill-opacity:1;fill-rule:evenodd;stroke:#008080;stroke-width:0;stroke-linecap:round;stroke-linejoin:round;stroke-miterlimit:4;stroke-dasharray:none;stroke-opacity:0.52549;paint-order:stroke markers fill"
     id="circle1756"
     cx="90.036934"
     cy="-257.08237"
     r="0.69092017"
     transform="scale(1,-1)" />
  <circle
     style="opacity:1;fill:#ffffff;fill-opacity:1;fill-rule:evenodd;stroke:#008080;stroke-width:0;stroke-linecap:round;stroke-linejoin:round;stroke-miterlimit:4;stroke-dasharray:none;stroke-opacity:0.52549;paint-order:stroke markers fill"
     id="circle1758"
     cx="96.436989"
     cy="-264.20975"
     r="0.69092017"
     transform="scale(1,-1)" />
  <circle
     style="opacity:1;fill:#ffffff;fill-opacity:1;fill-rule:evenodd;stroke:#008080;stroke-width:0;stroke-linecap:round;stroke-linejoin:round;stroke-miterlimit:4;stroke-dasharray:none;stroke-opacity:0.52549;paint-order:stroke markers fill"
     id="circle1760"
     cx="104.14616"
     cy="-243.40941"
     r="0.69092017"
     transform="scale(1,-1)" />
  <circle
     style="opacity:1;fill:#ffffff;fill-opacity:1;fill-rule:evenodd;stroke:#008080;stroke-width:0;stroke-linecap:round;stroke-linejoin:round;stroke-miterlimit:4;stroke-dasharray:none;stroke-opacity:0.52549;paint-order:stroke markers fill"
     id="circle1762"
     cx="73.891335"
     cy="-268.64618"
     r="0.69092017"
     transform="scale(1,-1)" />
</svg>
