<?xml version="1.0" encoding="UTF-8" standalone="no"?>
<svg
   xmlns:dc="http://purl.org/dc/elements/1.1/"
   xmlns:cc="http://creativecommons.org/ns#"
   xmlns:rdf="http://www.w3.org/1999/02/22-rdf-syntax-ns#"
   xmlns:svg="http://www.w3.org/2000/svg"
   xmlns="http://www.w3.org/2000/svg"
   xmlns:sodipodi="http://sodipodi.sourceforge.net/DTD/sodipodi-0.dtd"
   xmlns:inkscape="http://www.inkscape.org/namespaces/inkscape"
   width="52.365417mm"
   height="12.40894mm"
   viewBox="0 0 52.365416 12.408941"
   version="1.1"
   id="svg342"
   inkscape:version="1.0.1 (3bc2e813f5, 2020-09-07)"
   sodipodi:docname="five.svg">
  <defs
     id="defs336">
    <linearGradient
       id="linearGradient36033"
       x1="3849.7"
       x2="3763.7"
       y1="-4868.2998"
       y2="-4154"
       gradientTransform="matrix(0.01368939,0,0,0.01368939,-204.74319,187.84181)"
       gradientUnits="userSpaceOnUse">
      <stop
         stop-color="#80b3ff"
         offset="0"
         id="stop7" />
      <stop
         stop-color="#80b3ff"
         stop-opacity="0"
         offset="1"
         id="stop9" />
    </linearGradient>
  </defs>
  <sodipodi:namedview
     id="base"
     pagecolor="#ffffff"
     bordercolor="#666666"
     borderopacity="1.0"
     inkscape:pageopacity="0.0"
     inkscape:pageshadow="2"
     inkscape:zoom="0.35"
     inkscape:cx="1093.8322"
     inkscape:cy="98.5192"
     inkscape:document-units="mm"
     inkscape:current-layer="layer1"
     inkscape:document-rotation="0"
     showgrid="false"
     inkscape:window-width="1267"
     inkscape:window-height="730"
     inkscape:window-x="75"
     inkscape:window-y="0"
     inkscape:window-maximized="0" />
  <metadata
     id="metadata339">
    <rdf:RDF>
      <cc:Work
         rdf:about="">
        <dc:format>image/svg+xml</dc:format>
        <dc:type
           rdf:resource="http://purl.org/dc/dcmitype/StillImage" />
        <dc:title></dc:title>
      </cc:Work>
    </rdf:RDF>
  </metadata>
  <g
     inkscape:label="Layer 1"
     inkscape:groupmode="layer"
     id="layer1"
     transform="translate(183.57644,-122.10013)">
    <path
       d="m -131.21602,129.34588 -5.25194,-3.7125 -0.5433,0.3622 -1.99218,-0.45275 -0.99605,-1.0866 c 0,0 -1.81095,-0.7244 -2.3543,-0.45275 -0.54335,0.27164 -3.0787,0.0906 -3.0787,0.0906 l -1.17715,-1.17715 -0.81496,-0.27164 -0.72439,0.0905 h -1.6299 l -0.7244,-0.63385 h -0.5433 l -0.63385,0.5433 -0.72439,0.18109 -0.81494,0.99606 -1.62991,0.3622 -1.4488,0.5433 -1.0866,0.63385 -0.99606,0.99605 h -2.4449 l -4.43692,1.6299 -6.97227,-0.45275 -6.42909,1.17715 -1.17715,1.35824 -0.45275,0.27164 -1.17715,0.7244 h -0.81496 l -0.5433,0.27164 -0.72439,0.63385 c -0.0701,0.92844 -0.0488,1.84382 1.53935,2.53536 z"
       fill="url(#linearGradient36033)"
       stroke="#80b3ff"
       stroke-width="0.00362207px"
       id="path18"
       style="fill:url(#linearGradient36033)" />
  </g>
</svg>
