<?xml version="1.0" encoding="UTF-8" standalone="no"?>
<svg
   xmlns:dc="http://purl.org/dc/elements/1.1/"
   xmlns:cc="http://creativecommons.org/ns#"
   xmlns:rdf="http://www.w3.org/1999/02/22-rdf-syntax-ns#"
   xmlns:svg="http://www.w3.org/2000/svg"
   xmlns="http://www.w3.org/2000/svg"
   xmlns:sodipodi="http://sodipodi.sourceforge.net/DTD/sodipodi-0.dtd"
   xmlns:inkscape="http://www.inkscape.org/namespaces/inkscape"
   width="27.604868mm"
   height="17.939854mm"
   viewBox="0 0 27.604867 17.939854"
   version="1.1"
   id="svg342"
   inkscape:version="1.0.1 (3bc2e813f5, 2020-09-07)"
   sodipodi:docname="one.svg">
  <defs
     id="defs336" />
  <sodipodi:namedview
     id="base"
     pagecolor="#ffffff"
     bordercolor="#666666"
     borderopacity="1.0"
     inkscape:pageopacity="0.0"
     inkscape:pageshadow="2"
     inkscape:zoom="0.35"
     inkscape:cx="32.855212"
     inkscape:cy="-23.959379"
     inkscape:document-units="mm"
     inkscape:current-layer="layer1"
     inkscape:document-rotation="0"
     showgrid="false"
     inkscape:window-width="1267"
     inkscape:window-height="730"
     inkscape:window-x="75"
     inkscape:window-y="0"
     inkscape:window-maximized="0" />
  <metadata
     id="metadata339">
    <rdf:RDF>
      <cc:Work
         rdf:about="">
        <dc:format>image/svg+xml</dc:format>
        <dc:type
           rdf:resource="http://purl.org/dc/dcmitype/StillImage" />
        <dc:title></dc:title>
      </cc:Work>
    </rdf:RDF>
  </metadata>
  <g
     inkscape:label="Layer 1"
     inkscape:groupmode="layer"
     id="layer1"
     transform="translate(-97.140394,-154.50592)">
    <path
       d="m 97.147287,172.31584 c 3.991053,-2.22966 11.746293,-2.53781 15.465183,-3.99269 6.29382,-2.46241 8.11622,-4.83371 12.13098,-0.80941 v 3.20138 c -0.0535,1.44399 -1.05418,1.62511 -2.11288,1.72884 z"
       fill="#82ff82"
       stroke="#5fd35f"
       id="path128"
       style="stroke-width:0.00362207px" />
    <g
       id="g397"
       transform="translate(245.97553,115.09494)">
      <path
         d="m -125.66938,53.141087 c -0.23511,-2.707362 -0.0323,-5.283331 0.29997,-7.820403 l 0.19283,-0.02142 c -0.11005,2.783689 -0.20859,5.553029 0.12858,7.777613 z"
         fill="#784421"
         stroke="#784421"
         stroke-width="0.163561"
         id="path134" />
      <path
         d="m -125.49649,48.320221 c 0.8384,-0.375884 0.98678,-1.567236 1.22125,-2.656793 h 0.19284 c -0.27015,1.230717 -0.6268,2.364143 -1.34984,3.085329 z"
         fill="#c87137"
         stroke="#c87137"
         stroke-width="0.163561"
         id="path136" />
      <path
         d="m -125.53539,48.315898 c -1.17691,0.164542 -1.62865,-0.930418 -1.72288,-2.646291 h -0.27204 c 0.2852,1.676846 0.76786,2.985143 1.90427,3.073098 z"
         fill="#a05a2c"
         stroke="#a05a2c"
         stroke-width="0.163561"
         id="path138" />
      <path
         d="m -125.52675,46.466906 c 0.1698,-0.129581 0.32858,-0.206571 0.24641,0.867747 -0.0612,1.966683 0.0855,5.843475 -0.25709,5.677939 l -0.14999,-0.0857 c -0.22122,-2.216718 0.0368,-4.322962 0.16067,-6.459806 z"
         fill="#c87137"
         stroke="#c87137"
         stroke-width="0.163561"
         id="path140" />
      <path
         d="m -128.17619,44.056472 c -0.77232,0.743529 -0.61318,1.541865 0.55707,2.399672 1.18149,0.772185 1.87346,0.452263 2.31397,-0.428515 0.36828,0.19679 0.71444,0.880325 1.13559,-0.0857 0.5081,0.357788 0.84436,1.151838 2.05688,-0.278537 0.41584,-0.858801 -0.10625,-0.980684 -0.44993,-1.24269 0.71107,0.175425 1.02399,-0.04729 1.04988,-0.557076 0.22319,-0.589576 -0.29259,-0.735749 -0.59991,-1.007005 0.39781,-0.214258 0.47323,-0.428518 0.12857,-0.642781 l -0.3214,-0.0857 c 0.35892,-0.331297 0.0807,-0.80417 -0.0429,-1.24269 -0.35593,-0.449713 -0.81744,-0.265972 -1.28552,-0.04285 0.0203,-0.595455 0.0602,-1.199641 -0.92134,-1.349834 -1.17449,-0.0027 -1.30445,0.608983 -1.54264,1.156982 -0.26668,-0.395631 -0.47435,-0.201132 -0.68566,-0.04285 l 0.0214,0.321388 c -0.45356,-0.03755 -0.70312,0.09492 -0.8142,0.342812 -0.15815,0.308467 -0.19905,0.597399 0.32141,0.792758 -0.79708,0.0166 -1.04361,0.483643 -1.22129,1.007005 -0.007,0.317817 -0.22335,0.614732 0.29996,0.985568 z"
         fill="#8dd35f"
         stroke="#8dd35f"
         stroke-width="0.163561"
         id="path142" />
      <path
         d="m -128.47009,43.10561 c 0.24878,0.288021 0.48061,0.591221 1.00432,0.329422 0.0384,0.3259 0.18807,0.540434 0.79276,0.299962 0.0548,0.523362 0.4973,0.382039 0.94274,0.235683 -0.33475,0.148954 -0.51243,0.729873 -1.04989,0.321388 -0.52193,0.301107 -0.8052,0.124857 -0.98561,-0.257113 -0.1726,0.141765 -0.31031,0.157198 -0.4258,0.01339 -0.50072,-0.257255 -0.35289,-0.716171 -0.27854,-0.942735 z"
         stroke-width="0.163561"
         id="path144"
         style="fill:#5aa02c;stroke:#5aa02c" />
      <path
         d="m -122.03017,42.200564 c -0.30485,0.183983 -0.62895,0.487315 -1.01876,0.102515 -0.12866,0.278732 -0.32405,0.426086 -0.79211,0.03678 -0.20058,0.449585 -0.55314,0.195498 -0.90686,-0.0639 0.25452,0.229604 0.24398,0.797816 0.84051,0.590442 0.37684,0.419239 0.67991,0.344666 0.95121,0.05728 0.11239,0.176165 0.24288,0.199659 0.38733,0.105269 0.67831,-0.210326 1.15365,-0.596146 0.53871,-0.828373 z"
         stroke-width="0.163561"
         id="path146"
         style="fill:#5aa02c;stroke:#5aa02c" />
      <path
         d="m -128.60408,44.704354 c 0.65718,1.094139 1.42137,1.283188 2.24974,1.12219 0.44496,0.0065 0.79768,-0.263688 1.07127,-0.771322 0.28022,0.252903 0.42601,0.841902 1.13559,0.02142 0.40986,0.482864 0.51407,1.239276 2.00334,0.642783 -0.5863,0.658903 -1.15215,1.417604 -1.96051,0.299962 -0.27434,0.584995 -0.64066,0.746685 -1.19985,0.02143 -0.54329,1.20163 -1.43567,1.181446 -2.54965,0.385665 -1.10681,-1.103819 -0.87402,-1.298704 -0.74993,-1.722096 z"
         stroke-width="0.163561"
         id="path148"
         style="fill:#5aa02c;stroke:#5aa02c" />
    </g>
  </g>
</svg>
